<svg xmlns="http://www.w3.org/2000/svg" xmlns:xlink="http://www.w3.org/1999/xlink" width="16" height="16" viewBox="0 0 16 16" fill="none"><defs><rect id="path_0" x="0" y="0" width="16" height="16" /></defs><g opacity="1" transform="translate(0 0)  rotate(0 8 8)"><mask id="bg-mask-0" fill="white"><use xlink:href="#path_0"></use></mask><g mask="url(#bg-mask-0)" ><path id="路径 1" fill-rule="evenodd" style="fill:#8C7BFD" transform="translate(1.1199999999999994 1.2264000000000006)  rotate(0 6.8612 6.72)" opacity="1" d="M1.28,0C0.57,0 0,0.57 0,1.28C0,1.98 0.57,2.55 1.28,2.55L1.74,2.55L1.74,2.59C1.74,4.23 2.52,5.75 3.8,6.72C2.51,7.7 1.74,9.23 1.74,10.85L1.74,10.89L1.28,10.89C0.57,10.89 0,11.46 0,12.16C0,12.87 0.57,13.44 1.28,13.44L12.45,13.44C13.15,13.44 13.72,12.87 13.72,12.16C13.72,11.46 13.15,10.89 12.45,10.89L12.09,10.89L12.09,10.85C12.09,9.21 11.31,7.69 10.03,6.72C11.32,5.74 12.09,4.21 12.09,2.59L12.09,2.55L12.45,2.55C13.15,2.55 13.72,1.98 13.72,1.28C13.72,0.57 13.15,0 12.45,0L1.28,0Z " /><g opacity="1" transform="translate(5.112 4.0688)  rotate(0 2.8823999999999996 3.9275999999999995)"><path id="路径 2" fill-rule="evenodd" style="fill:#FFE37B" transform="translate(0 0)  rotate(0 2.8823999999999996 0.7999999999999998)" opacity="1" d="M5.76,0.8C5.76,0.36 5.41,0 4.96,0L0.8,0C0.36,0 0,0.36 0,0.8C0,1.24 0.36,1.6 0.8,1.6L4.96,1.6C5.41,1.6 5.76,1.24 5.76,0.8Z " /><path id="路径 3" fill-rule="evenodd" style="fill:#FFE37B" transform="translate(0 6.255199999999998)  rotate(0 2.8823999999999996 0.8000000000000007)" opacity="1" d="M5.76,0.8C5.76,0.36 5.41,0 4.96,0L0.8,0C0.36,0 0,0.36 0,0.8C0,1.24 0.36,1.6 0.8,1.6L4.96,1.6C5.41,1.6 5.76,1.24 5.76,0.8Z " /></g></g></g></svg>