<svg xmlns="http://www.w3.org/2000/svg" xmlns:xlink="http://www.w3.org/1999/xlink" width="24" height="24" viewBox="0 0 24 24" fill="none"><defs><rect id="path_0" x="0" y="0" width="24" height="24" /></defs><g opacity="1" transform="translate(0 0)  rotate(0 12 12)"><mask id="bg-mask-0" fill="white"><use xlink:href="#path_0"></use></mask><g mask="url(#bg-mask-0)" ><path id="路径 1" fill-rule="evenodd" style="fill:#C7ACEF" transform="translate(8.162400000000053 7.7196)  rotate(0 6.9888 6.9888)" opacity="1" d="M6.99,13.98C10.85,13.98 13.98,10.85 13.98,6.99C13.98,3.13 10.85,0 6.99,0C3.13,0 0,3.13 0,6.99C0,10.85 3.13,13.98 6.99,13.98Z " /><path id="分组 1" fill-rule="evenodd" style="fill:#4F4F4F" transform="translate(1.332899999999999 1.333634617531564)  rotate(0 10.61110500460615 10.612582691234216)" opacity="1" d="M11.85 20.31L20.5 11.65C20.98 11.18 21.24 10.52 21.22 9.84L21 2.57C20.96 1.28 19.91 0.23 18.61 0.2L11.38 0C10.7 -0.02 10.05 0.24 9.58 0.72L0.92 9.37C-0.31 10.6 -0.31 12.6 0.92 13.82L7.4 20.3C8.02 20.92 8.82 21.23 9.63 21.23C10.43 21.23 11.24 20.92 11.85 20.31Z M1.94 10.3884C1.27 11.0584 1.27 12.1384 1.94 12.8084L8.42 19.2884C9.09 19.9484 10.17 19.9484 10.83 19.2884L19.49 10.6284C19.68 10.4384 19.79 10.1684 19.78 9.88836L19.56 2.61837C19.54 2.07837 19.11 1.64837 18.57 1.63837L11.34 1.43837C11.33 1.43837 11.32 1.43837 11.31 1.43837C11.04 1.43837 10.78 1.54837 10.6 1.73837L1.94 10.3884Z " /><path id="分组 2" fill-rule="evenodd" style="fill:#4F4F4F" transform="translate(13.208399999999957 5.152800000000004)  rotate(0 2.644799999999999 2.6448000000000005)" opacity="1" d="M5.29 2.64C5.29 1.19 4.1 0 2.64 0C1.19 0 0 1.19 0 2.64C0 4.1 1.19 5.29 2.64 5.29C4.1 5.29 5.29 4.1 5.29 2.64Z M1.44 2.6412C1.44 3.3112 1.98 3.8512 2.64 3.8512C3.31 3.8512 3.85 3.3112 3.85 2.6412C3.85 1.9812 3.31 1.4412 2.64 1.4412C1.98 1.4412 1.44 1.9812 1.44 2.6412Z " /></g></g></svg>