<svg xmlns="http://www.w3.org/2000/svg" xmlns:xlink="http://www.w3.org/1999/xlink" width="32" height="32" viewBox="0 0 32 32" fill="none"><g opacity="1" transform="translate(0 0)  rotate(0 16 16)"><path id="add icon bg" fill-rule="evenodd" style="fill:#A0D7E7" transform="translate(0 0)  rotate(0 16 16)" opacity="1" d="M30,0C13.43,0 0,13.43 0,30C0,46.57 13.43,60 30,60C46.57,60 60,46.57 60,30C60,13.43 46.57,0 30,0Z " /><path id="Plus" fill-rule="evenodd" style="fill:#FFFFFF" transform="translate(12.714666666666666 12.709333333333332)  rotate(0 3.288 3.2853333333333334)" opacity="1" d="M2.73067 2.72533L2.73067 0.56C2.73067 0.25 2.98067 0 3.29067 0C3.57067 0 3.80067 0.21 3.84067 0.48L3.84067 2.72533L6.02 2.72533C6.33 2.72533 6.58 2.97533 6.58 3.28533C6.58 3.56533 6.37 3.79533 6.09 3.83533L3.84067 3.83533L3.84067 6.01C3.84067 6.32 3.60067 6.57 3.29067 6.57C3.01067 6.57 2.77067 6.36 2.74067 6.09L2.73067 6.01L2.73067 3.83533L0.56 3.83533C0.25 3.83533 0 3.59533 0 3.28533C0 3.00533 0.21 2.76533 0.48 2.73533L0.56 2.72533L2.73067 2.72533Z " /></g></svg>