<svg xmlns="http://www.w3.org/2000/svg" xmlns:xlink="http://www.w3.org/1999/xlink" width="24" height="24" viewBox="0 0 24 24" fill="none"><defs><rect id="path_0" x="0" y="0" width="24" height="24" /></defs><g opacity="1" transform="translate(0 0)  rotate(0 12 12)"><mask id="bg-mask-0" fill="white"><use xlink:href="#path_0"></use></mask><g mask="url(#bg-mask-0)" ><path id="分组 1" fill-rule="evenodd" style="fill:#5E6272" transform="translate(3.008780484375055 0.023414648437479257)  rotate(0 8.99121950390625 11.98829267578125)" opacity="1" d="M7.52781 12.9271C7.8678 12.9271 8.1678 12.6971 8.2578 12.3571C8.35781 11.9571 8.10781 11.5471 7.7078 11.4471C5.3778 10.8671 3.7478 8.77707 3.7478 6.36707L3.7478 3.74707C3.7478 3.33707 3.4078 2.99707 2.9978 2.99707C2.5878 2.99707 2.2478 3.33707 2.2478 3.74707L2.2478 6.36707C2.2478 9.45707 4.34781 12.1471 7.34781 12.9071C7.4078 12.9171 7.4678 12.9271 7.52781 12.9271Z M10.6349 12.9071C13.6349 12.1471 15.7349 9.45707 15.7349 6.36707L15.7349 3.74707C15.7349 3.33707 15.3949 2.99707 14.9849 2.99707C14.5749 2.99707 14.2349 3.33707 14.2349 3.74707L14.2349 6.36707C14.2349 8.77707 12.6049 10.8671 10.2749 11.4471C9.87486 11.5471 9.62486 11.9571 9.72486 12.3571C9.81486 12.6971 10.1149 12.9271 10.4549 12.9271C10.5149 12.9271 10.5749 12.9171 10.6349 12.9071Z M15.7352 20.2277L15.7352 17.9777C15.7352 14.8877 13.6352 12.1977 10.6352 11.4477C10.2452 11.3477 9.82515 11.5877 9.72515 11.9977C9.62515 12.3977 9.87515 12.7977 10.2752 12.8977C12.6052 13.4877 14.2352 15.5777 14.2352 17.9777L14.2352 20.2277C14.2352 20.6477 14.5752 20.9777 14.9852 20.9777C15.3952 20.9777 15.7352 20.6477 15.7352 20.2277Z M3.7478 20.2269L3.7478 17.9869C3.7478 15.5769 5.3778 13.4869 7.7078 12.8969C8.10781 12.7969 8.35781 12.3969 8.2578 11.9969C8.1578 11.5869 7.7478 11.3469 7.34781 11.4469C4.34781 12.2069 2.2478 14.8869 2.2478 17.9869L2.2478 20.2269C2.2478 20.6469 2.5878 20.9769 2.9978 20.9769C3.4078 20.9769 3.7478 20.6469 3.7478 20.2269Z M17.98 3.75L17.98 0.75C17.98 0.34 17.65 0 17.23 0L0.75 0C0.34 0 0 0.34 0 0.75L0 3.75C0 4.16 0.34 4.5 0.75 4.5L17.23 4.5C17.65 4.5 17.98 4.16 17.98 3.75Z M16.4885 2.99854L16.4885 1.49854L1.49854 1.49854L1.49854 2.99854L16.4885 2.99854Z M17.98 23.231L17.98 20.231C17.98 19.821 17.65 19.481 17.23 19.481L0.75 19.481C0.34 19.481 0 19.821 0 20.231L0 23.231C0 23.641 0.34 23.981 0.75 23.981L17.23 23.981C17.65 23.981 17.98 23.641 17.98 23.231Z M16.4885 22.4795L16.4885 20.9795L1.49854 20.9795L1.49854 22.4795L16.4885 22.4795Z " /></g></g></svg>