<svg xmlns="http://www.w3.org/2000/svg" xmlns:xlink="http://www.w3.org/1999/xlink" width="24" height="24" viewBox="0 0 24 24" fill="none"><g opacity="1" transform="translate(0 0)  rotate(0 12 12)"><g opacity="1" transform="translate(2 3)  rotate(0 10 9)"><path id="Fill 1" fill-rule="evenodd" style="fill:#CFC8FF" transform="translate(0 5.8)  rotate(0 10 6.1)" opacity="1" d="M19.18,0.18C16.77,2.1 12.61,5.43 12.56,5.46C11.85,6.04 10.95,6.36 10.03,6.36C9.11,6.36 8.21,6.04 7.5,5.47C7.45,5.43 3.2,1.99 0.82,0.11C0.5,-0.15 0.02,0.08 0.01,0.5C0.01,2.73 0,7.15 0,7.15L0,7.16C0,9.95 2.27,12.2 5.05,12.2L14.96,12.2L14.97,12.2C17.76,12.19 20,9.93 20,7.14C20,7.14 20,2.78 19.99,0.57C19.99,0.15 19.51,-0.08 19.18,0.18Z " /><path id="Fill 4" fill-rule="evenodd" style="fill:#FFFFFF" transform="translate(0.5 0)  rotate(0 9.535 5.16)" opacity="1" d="M9.53,10.32C9.53,10.32 9.53,10.32 9.54,10.32C9.54,10.32 9.54,10.32 9.54,10.32C10.17,10.32 10.8,10.11 11.32,9.69L18.75,3.75C19.07,3.49 19.16,3.04 18.97,2.67C18.1,1.04 16.4,0 14.52,0L4.55,0C2.67,0 0.97,1.04 0.1,2.67C-0.09,3.04 0,3.49 0.32,3.75L7.75,9.69C8.27,10.11 8.9,10.32 9.53,10.32Z " /></g></g></svg>