<svg xmlns="http://www.w3.org/2000/svg" xmlns:xlink="http://www.w3.org/1999/xlink" width="28" height="28" viewBox="0 0 28 28" fill="none"><g opacity="1" transform="translate(0 0)  rotate(0 14 14)"><g opacity="1" transform="translate(0 0)  rotate(0 14 14)"><g opacity="1" transform="translate(2.3333333333333335 2.3333333333333335)  rotate(270 11.666666666666668 11.666666666666668)"><path id="Fill 1" fill-rule="evenodd" style="fill:#CFC8FF" transform="translate(0 0)  rotate(0 11.666666666666668 11.666666666666668)" opacity="1" d="M20,5.92C20,2.38 17.72,0 14.34,0L5.67,0C2.28,0 0,2.38 0,5.92L0,14.08C0,17.62 2.28,20 5.67,20L14.34,20C17.72,20 20,17.62 20,14.08L20,5.92Z " /><path id="Fill 4" fill-rule="evenodd" style="fill:#6C5DD3" transform="translate(6.416666666666667 6.031666666666667)  rotate(0 5.25 5.635000000000001)" opacity="1" d="M5.03,0.21C4.75,-0.07 4.25,-0.07 3.97,0.21L0.22,3.98C-0.07,4.27 -0.07,4.74 0.22,5.04C0.52,5.33 0.99,5.33 1.28,5.03L3.75,2.56L3.75,8.91C3.75,9.33 4.09,9.66 4.5,9.66C4.92,9.66 5.25,9.33 5.25,8.91L5.25,2.56L7.72,5.03C7.87,5.18 8.06,5.25 8.25,5.25C8.44,5.25 8.63,5.18 8.78,5.04C9.07,4.74 9.07,4.27 8.78,3.98L5.03,0.21Z " /></g></g></g></svg>