<svg xmlns="http://www.w3.org/2000/svg" xmlns:xlink="http://www.w3.org/1999/xlink" width="24" height="24" viewBox="0 0 24 24" fill="none"><defs><rect id="path_0" x="0" y="0" width="24" height="24" /></defs><g opacity="1" transform="translate(0 0)  rotate(0 12 12)"><mask id="bg-mask-0" fill="white"><use xlink:href="#path_0"></use></mask><g mask="url(#bg-mask-0)" ><path id="分组 1" fill-rule="evenodd" style="fill:#515151" transform="translate(3.6000000000000454 12.389999999999995)  rotate(0 8.459999999999999 4.890000000000001)" opacity="1" d="M1.17 7.83C1.17 8.55 1.86 8.64 2.16 8.64L14.67 8.64C14.79 8.64 15.75 8.64 15.75 7.83L15.75 2.43C15.54 2.46 15.33 2.46 15.12 2.46C13.92 2.46 12.75 2.07 11.76 1.38C10.77 2.07 9.6 2.43 8.4 2.43C7.2 2.43 6.03 2.04 5.04 1.35C4.08 2.01 2.91 2.4 1.74 2.4C1.56 2.4 1.35 2.4 1.17 2.37L1.17 7.83Z M11.49 0.09C10.65 0.84 9.54 1.23 8.43 1.23C7.29 1.23 6.21 0.81 5.37 0.06C5.25 0.03 5.16 0 5.04 0C4.95 0 4.83 0.03 4.77 0.09C3.93 0.81 2.85 1.23 1.71 1.23C1.2 1.23 0.69 1.14 0.18 0.99C0.12 0.96 0 0.93 0 0.93L0 7.8C0 9.03 0.93 9.78 2.16 9.78L14.67 9.78C15.9 9.78 16.92 9.03 16.92 7.8L16.92 0.93C16.32 1.17 15.72 1.26 15.12 1.26C13.98 1.26 12.9 0.84 12.06 0.12C11.97 0.06 11.85 0 11.76 0C11.67 0 11.55 0.03 11.49 0.09Z " /><path id="分组 2" fill-rule="evenodd" style="fill:#515151" transform="translate(1.4999999999999973 1.8299999999999832)  rotate(0 10.53200162146164 9.165000000000013)" opacity="1" d="M5.64 14.43L5.64 17.97C5.64 18.15 6.03 18.33 6.45 18.33C6.87 18.33 7.26 18.18 7.26 17.97L7.26 14.43C7.26 14.22 6.87 14.07 6.45 14.07C6.03 14.07 5.64 14.22 5.64 14.43Z M13.86 7.2C14.37 7.2 14.82 7.44 15.12 7.83C15.63 8.49 16.41 8.88 17.22 8.88C17.4 8.88 17.55 8.85 17.73 8.82C18.87 8.61 19.92 7.29 19.86 6.12C19.86 5.97 19.83 5.85 19.8 5.7L17.13 1.68L17.07 1.62L17.04 1.53C16.95 1.32 16.71 1.17 16.47 1.17L4.5 1.17C4.26 1.17 4.02 1.32 3.96 1.56L3.93 1.65L3.87 1.71L1.23 5.76C1.2 5.91 1.17 6.06 1.17 6.24C1.17 6.84 1.35 7.38 1.71 7.86C2.07 8.31 2.55 8.64 3.09 8.79C3.33 8.85 3.6 8.88 3.84 8.88C4.68 8.88 5.43 8.49 5.94 7.83C6.24 7.44 6.69 7.23 7.17 7.23C7.65 7.23 8.1 7.44 8.4 7.83C8.91 8.46 9.69 8.85 10.5 8.85C11.34 8.85 12.09 8.49 12.6 7.83C12.9 7.44 13.35 7.2 13.86 7.2Z M13.53 8.55C13.62 8.43 13.74 8.37 13.89 8.37C14.04 8.37 14.16 8.43 14.25 8.55C14.97 9.51 16.11 10.05 17.28 10.05C17.52 10.05 17.76 10.02 18 9.99C19.71 9.66 21.15 7.86 21.06 6.12C21.06 5.88 21 5.61 20.94 5.37L20.91 5.25L18.06 1.02C17.76 0.39 17.13 0.03 16.47 0L4.5 0.03C3.81 0.03 3.18 0.42 2.91 1.05L0.18 5.25C0.18 5.28 0.15 5.34 0.15 5.37C0.03 5.64 0 5.91 0 6.21C0 7.92 1.11 9.42 2.76 9.87C3.12 9.96 3.48 10.02 3.81 10.02C5.04 10.02 6.12 9.45 6.81 8.55C6.9 8.46 7.02 8.37 7.17 8.37C7.29 8.37 7.44 8.43 7.53 8.55C8.25 9.48 9.36 10.02 10.53 10.02C11.76 10.02 12.84 9.45 13.53 8.55Z " /></g></g></svg>