<svg xmlns="http://www.w3.org/2000/svg" xmlns:xlink="http://www.w3.org/1999/xlink" width="24" height="24" viewBox="0 0 24 24" fill="none"><g opacity="1" transform="translate(0 0)  rotate(0 12 12)"><g opacity="1" transform="translate(3 2)  rotate(0 9 10)"><path id="Path" fill-rule="evenodd" style="fill:#5E6272" transform="translate(0 0)  rotate(0 9 10)" opacity="1" d="M4.81,0C1.77,0 0,1.78 0,4.83L0,15.16C0,18.26 1.77,20 4.81,20L13.19,20C16.28,20 18,18.26 18,15.16L18,4.83C18,1.78 16.28,0 13.19,0L4.81,0Z " /><path id="Combined Shape" fill-rule="evenodd" style="fill:#FFFFFF" transform="translate(4.21 4.65)  rotate(0 4.745 5.335)" opacity="1" d="M0.09 0.79C0.09 1.22 0.44 1.57 0.87 1.57L3.86 1.57C4.29 1.57 4.64 1.22 4.64 0.78C4.64 0.35 4.29 0 3.86 0L0.87 0L0.87 0.01C0.44 0.01 0.09 0.36 0.09 0.79Z M9.49 5.31C9.49 4.88 9.14 4.53 8.71 4.53L0.87 4.53C0.44 4.53 0.09 4.88 0.09 5.31C0.09 5.74 0.44 6.09 0.87 6.09L8.71 6.09C9.14 6.09 9.49 5.74 9.49 5.31Z M9.41 9.88C9.41 9.47 9.11 9.13 8.71 9.09L0.87 9.09C0.57 9.06 0.28 9.2 0.12 9.46C-0.04 9.71 -0.04 10.04 0.12 10.3C0.28 10.55 0.57 10.7 0.87 10.66L8.71 10.66C9.11 10.62 9.41 10.28 9.41 9.88Z " /></g></g></svg>