<svg xmlns="http://www.w3.org/2000/svg" xmlns:xlink="http://www.w3.org/1999/xlink" width="24" height="24" viewBox="0 0 24 24" fill="none"><defs><rect id="path_0" x="0" y="0" width="24" height="24" /></defs><g opacity="1" transform="translate(0 0)  rotate(0 12 12)"><mask id="bg-mask-0" fill="white"><use xlink:href="#path_0"></use></mask><g mask="url(#bg-mask-0)" ><path id="路径 1" fill-rule="evenodd" style="fill:#CCCCCC" transform="translate(7.184015624999972 1.1839218749999936)  rotate(0 5.107546874999999 5.10758203125)" opacity="1" d="M5.11,0C2.29,0 0,2.29 0,5.11C0,7.93 2.29,10.22 5.11,10.22C7.93,10.22 10.22,7.93 10.22,5.11C10.22,2.29 7.93,0 5.11,0Z " /><path id="路径 2" fill-rule="evenodd" style="fill:#CCCCCC" transform="translate(4.939359374999994 12.039421872679682)  rotate(0 7.352132812500001 5.164957032410163)" opacity="1" d="M14.7,6.34C14.7,2.84 11.41,0 7.35,0C3.29,0 0,2.84 0,6.35C0,9.85 3.29,10.33 7.35,10.33C11.41,10.33 14.7,9.85 14.7,6.34Z " /></g></g></svg>