<svg xmlns="http://www.w3.org/2000/svg" xmlns:xlink="http://www.w3.org/1999/xlink" width="24" height="24" viewBox="0 0 24 24" fill="none"><g opacity="1"  transform="translate(0 0)  rotate(0)"><mask id="bg-mask-0" fill="white"><use transform="translate(0 0)  rotate(0)" xlink:href="#path_0"></use></mask><g mask="url(#bg-mask-0)" ><path id="分组 1" fill-rule="evenodd" style="fill:#0400FF" opacity="1" d="M5.46,19.56l-0.09,-0.08l-0.18,-0.16l-0.09,-0.08l-0.08,-0.09l-0.09,-0.08l-0.08,-0.08l-0.09,-0.09l-0.08,-0.09l-0.08,-0.09l-0.08,-0.09l-0.08,-0.09l-0.08,-0.09l-0.07,-0.09l-0.08,-0.09l-0.08,-0.1l-0.07,-0.09l-0.07,-0.1l-0.07,-0.1l-0.07,-0.09l-0.07,-0.1l-0.07,-0.1l-0.07,-0.1l-0.06,-0.1l-0.07,-0.1l-0.06,-0.11l-0.06,-0.1l-0.06,-0.1l-0.06,-0.11l-0.06,-0.1l-0.06,-0.11l-0.05,-0.11l-0.06,-0.11l-0.05,-0.11l-0.05,-0.1l-0.06,-0.12l-0.05,-0.11l-0.04,-0.11l-0.05,-0.11l-0.05,-0.11l-0.04,-0.12l-0.04,-0.11l-0.04,-0.12l-0.04,-0.11l-0.04,-0.12l-0.04,-0.12l-0.04,-0.11l-0.15,-0.6l-0.03,-0.12l-0.03,-0.13l-0.02,-0.12l-0.02,-0.12l-0.02,-0.12l-0.02,-0.13l-0.02,-0.12l-0.02,-0.13l-0.01,-0.12l-0.02,-0.13l-0.01,-0.12l-0.01,-0.13l-0.02,-0.26v-0.12l-0.01,-0.13v-0.52l0.01,-0.13v-0.12l0.02,-0.26l0.01,-0.13l0.01,-0.12l0.02,-0.13l0.01,-0.12l0.02,-0.13l0.02,-0.12l0.02,-0.12l0.02,-0.13l0.02,-0.12l0.02,-0.12l0.03,-0.13l0.03,-0.12l0.12,-0.48l0.03,-0.11l0.04,-0.12l0.04,-0.12l0.04,-0.11l0.04,-0.12l0.04,-0.12l0.04,-0.11l0.04,-0.11l0.05,-0.12l0.05,-0.11l0.04,-0.11l0.05,-0.11l0.06,-0.11l0.05,-0.11l0.05,-0.11l0.06,-0.11l0.05,-0.11l0.06,-0.1l0.06,-0.11l0.06,-0.11l0.06,-0.1l0.06,-0.1l0.06,-0.11l0.07,-0.1l0.06,-0.1l0.07,-0.1l0.07,-0.1l0.07,-0.1l0.07,-0.09l0.07,-0.1l0.07,-0.1l0.07,-0.09l0.08,-0.1l0.08,-0.09l0.07,-0.09l0.08,-0.09l0.08,-0.09l0.08,-0.09l0.08,-0.09l0.08,-0.09l0.09,-0.08l0.08,-0.09l0.09,-0.08l0.08,-0.09l0.09,-0.08l0.09,-0.08l0.09,-0.08l0.09,-0.08l0.09,-0.08l0.09,-0.07l0.09,-0.08l0.1,-0.08l0.09,-0.07l0.1,-0.07l0.1,-0.07l0.09,-0.07l0.1,-0.07l0.1,-0.07l0.1,-0.07l0.1,-0.06l0.1,-0.07l0.11,-0.06l0.1,-0.06l0.1,-0.06l0.11,-0.06l0.11,-0.06l0.1,-0.06l0.11,-0.05l0.11,-0.06l0.11,-0.05l0.11,-0.05l0.11,-0.06l0.11,-0.05l0.11,-0.04l0.11,-0.05l0.12,-0.04l0.11,-0.05l0.11,-0.04l0.12,-0.04l0.11,-0.04l0.12,-0.04l0.12,-0.04l0.12,-0.04l0.11,-0.03l0.48,-0.12l0.12,-0.03l0.13,-0.03l0.12,-0.02l0.12,-0.02l0.12,-0.02l0.13,-0.02l0.12,-0.02l0.13,-0.02l0.12,-0.01l0.13,-0.02l0.12,-0.01l0.13,-0.01l0.26,-0.02h0.12l0.13,-0.01h0.52l0.13,0.01h0.12l0.26,0.02l0.13,0.01l0.12,0.01l0.13,0.02l0.12,0.01l0.13,0.02l0.12,0.02l0.13,0.02l0.12,0.02l0.12,0.02l0.12,0.02l0.13,0.03l0.12,0.03l0.12,0.02l0.12,0.03l0.12,0.04l0.12,0.03l0.11,0.03l0.12,0.04l0.12,0.04l0.12,0.04l0.11,0.04l0.12,0.04l0.11,0.04l0.11,0.05l0.12,0.04l0.11,0.05l0.11,0.05l0.11,0.04l0.11,0.05l0.11,0.06l0.11,0.05l0.11,0.05l0.11,0.06l0.11,0.06l0.1,0.06l0.11,0.06l0.1,0.06l0.1,0.06l0.11,0.06l0.1,0.07l0.1,0.06l0.1,0.07l0.1,0.07l0.1,0.07l0.09,0.07l0.1,0.07l0.1,0.07l0.09,0.07l0.1,0.08l0.09,0.08l0.09,0.07l0.09,0.08l0.09,0.08l0.09,0.08l0.09,0.08l0.09,0.08l0.08,0.09l0.09,0.08l0.08,0.09l0.09,0.08l0.08,0.09l0.16,0.18l0.08,0.09l0.08,0.09l0.07,0.09l0.08,0.09l0.08,0.1l0.07,0.09l0.14,0.2l0.07,0.09l0.07,0.1l0.07,0.1l0.07,0.1l0.06,0.1l0.07,0.1l0.06,0.11l0.06,0.1l0.06,0.1l0.06,0.11l0.06,0.11l0.06,0.1l0.06,0.11l0.05,0.11l0.05,0.11l0.05,0.11l0.06,0.11l0.05,0.11l0.04,0.11l0.05,0.11l0.05,0.12l0.04,0.11l0.04,0.11l0.04,0.12l0.04,0.11l0.04,0.12l0.04,0.12l0.04,0.12l0.03,0.11l0.03,0.12l0.04,0.12l0.03,0.12l0.02,0.12l0.03,0.12l0.03,0.13l0.04,0.24l0.03,0.12l0.02,0.13l0.01,0.12l0.02,0.13l0.01,0.12l0.02,0.13l0.01,0.12l0.01,0.13l0.02,0.26v0.12l0.01,0.13v0.52l-0.01,0.13v0.12l-0.02,0.26l-0.01,0.13l-0.01,0.12l-0.02,0.13l-0.01,0.12l-0.02,0.13l-0.01,0.12l-0.02,0.13l-0.03,0.12l-0.04,0.24l-0.03,0.12l-0.03,0.13l-0.02,0.12l-0.03,0.12l-0.04,0.12l-0.03,0.12l-0.03,0.12l-0.04,0.11l-0.04,0.12l-0.04,0.12l-0.04,0.11l-0.04,0.12l-0.04,0.11l-0.04,0.12l-0.05,0.11l-0.05,0.11l-0.04,0.11l-0.05,0.11l-0.05,0.12l-0.06,0.1l-0.05,0.11l-0.05,0.11l-0.06,0.11l-0.06,0.11l-0.06,0.1l-0.06,0.11l-0.06,0.1l-0.06,0.1l-0.06,0.11l-0.07,0.1l-0.06,0.1l-0.07,0.1l-0.07,0.1l-0.07,0.1l-0.07,0.09l-0.07,0.1l-0.07,0.1l-0.07,0.09l-0.08,0.1l-0.07,0.09l-0.16,0.18l-0.08,0.09l-0.24,0.27l-0.17,0.17l-0.09,0.08l-0.08,0.09l-0.27,0.24l-0.09,0.08l-0.18,0.16l-0.09,0.07l-0.1,0.08l-0.09,0.07l-0.1,0.07l-0.09,0.07l-0.2,0.14l-0.1,0.07l-0.1,0.07l-0.1,0.06l-0.1,0.07l-0.11,0.06l-0.1,0.06l-0.1,0.06l-0.11,0.06l-0.1,0.06l-0.11,0.06l-0.11,0.06l-0.11,0.05l-0.11,0.05l-0.11,0.06l-0.11,0.05l-0.11,0.05l-0.11,0.04l-0.11,0.05l-0.11,0.05l-0.12,0.04l-0.11,0.04l-0.12,0.05l-0.11,0.04l-0.12,0.03l-0.12,0.04l-0.11,0.04l-0.12,0.03l-0.12,0.03l-0.12,0.03l-0.12,0.03l-0.24,0.06l-0.13,0.03l-0.24,0.04l-0.12,0.02l-0.13,0.02l-0.12,0.02l-0.13,0.02l-0.12,0.01l-0.13,0.02l-0.12,0.01l-0.13,0.01l-0.26,0.02h-0.12l-0.13,0.01h-0.52l-0.13,-0.01h-0.12l-0.26,-0.02l-0.13,-0.01l-0.12,-0.01l-0.13,-0.02l-0.12,-0.01l-0.13,-0.02l-0.12,-0.01l-0.13,-0.02l-0.12,-0.03l-0.24,-0.04l-0.13,-0.03l-0.12,-0.03l-0.12,-0.03l-0.12,-0.03l-0.12,-0.03l-0.12,-0.03l-0.11,-0.03l-0.12,-0.04l-0.12,-0.04l-0.12,-0.03l-0.11,-0.04l-0.12,-0.05l-0.11,-0.04l-0.11,-0.04l-0.12,-0.05l-0.11,-0.05l-0.11,-0.04l-0.11,-0.05l-0.11,-0.05l-0.11,-0.06l-0.11,-0.05l-0.11,-0.05l-0.11,-0.06l-0.1,-0.06l-0.11,-0.06l-0.11,-0.06l-0.1,-0.06l-0.1,-0.06l-0.11,-0.06l-0.1,-0.07l-0.1,-0.06l-0.1,-0.07l-0.1,-0.07l-0.1,-0.07l-0.09,-0.07l-0.2,-0.14l-0.09,-0.07l-0.1,-0.08l-0.09,-0.07l-0.09,-0.08zM9.64,20.69l0.11,0.03l0.11,0.02l0.11,0.03l0.11,0.02l0.11,0.03l0.22,0.04l0.11,0.02l0.11,0.02l0.11,0.01l0.11,0.02l0.12,0.01l0.11,0.01l0.11,0.01l0.12,0.01l0.11,0.01l0.12,0.01h0.11l0.12,0.01h0.46l0.12,-0.01h0.11l0.12,-0.01l0.11,-0.01l0.12,-0.01l0.11,-0.01l0.11,-0.01l0.12,-0.01l0.11,-0.02l0.11,-0.01l0.11,-0.02l0.11,-0.02l0.11,-0.02l0.11,-0.02l0.11,-0.03l0.11,-0.02l0.11,-0.03l0.11,-0.02l0.11,-0.03l0.1,-0.03l0.11,-0.03l0.1,-0.03l0.11,-0.04l0.1,-0.03l0.11,-0.04l0.1,-0.04l0.11,-0.03l0.1,-0.04l0.1,-0.04l0.1,-0.05l0.1,-0.04l0.1,-0.04l0.1,-0.05l0.1,-0.05l0.1,-0.04l0.09,-0.06l0.1,-0.04l0.1,-0.06l0.09,-0.05l0.1,-0.05l0.09,-0.06l0.09,-0.05l0.1,-0.06l0.09,-0.06l0.09,-0.06l0.09,-0.06l0.18,-0.12l0.08,-0.06l0.09,-0.07l0.09,-0.06l0.08,-0.07l0.09,-0.07l0.08,-0.07l0.09,-0.07l0.08,-0.06l0.08,-0.08l0.16,-0.14l0.08,-0.08l0.08,-0.07l0.07,-0.08l0.08,-0.07l0.07,-0.08l0.08,-0.08l0.14,-0.16l0.14,-0.16l0.07,-0.09l0.07,-0.08l0.07,-0.09l0.07,-0.08l0.06,-0.09l0.07,-0.08l0.18,-0.27l0.06,-0.09l0.06,-0.09l0.06,-0.09l0.06,-0.09l0.05,-0.1l0.06,-0.09l0.05,-0.1l0.05,-0.09l0.05,-0.1l0.05,-0.09l0.05,-0.1l0.05,-0.1l0.05,-0.1l0.04,-0.1l0.05,-0.1l0.04,-0.1l0.05,-0.1l0.04,-0.1l0.03,-0.1l0.04,-0.11l0.04,-0.1l0.04,-0.11l0.03,-0.1l0.03,-0.11l0.04,-0.1l0.03,-0.11l0.03,-0.1l0.03,-0.11l0.02,-0.11l0.03,-0.11l0.02,-0.11l0.03,-0.11l0.02,-0.11l0.02,-0.11l0.02,-0.11l0.02,-0.11l0.01,-0.11l0.02,-0.11l0.01,-0.12l0.01,-0.11l0.01,-0.11l0.01,-0.12l0.01,-0.11l0.01,-0.12v-0.11l0.01,-0.12v-0.46l-0.01,-0.12v-0.11l-0.01,-0.12l-0.01,-0.11l-0.01,-0.12l-0.01,-0.11l-0.01,-0.11l-0.01,-0.12l-0.02,-0.11l-0.01,-0.11l-0.02,-0.11l-0.02,-0.11l-0.04,-0.22l-0.03,-0.11l-0.02,-0.11l-0.03,-0.11l-0.02,-0.11l-0.03,-0.11l-0.03,-0.1l-0.03,-0.11l-0.03,-0.1l-0.04,-0.11l-0.03,-0.1l-0.04,-0.11l-0.04,-0.1l-0.03,-0.11l-0.04,-0.1l-0.04,-0.1l-0.05,-0.1l-0.04,-0.1l-0.05,-0.1l-0.04,-0.1l-0.05,-0.1l-0.05,-0.1l-0.05,-0.09l-0.04,-0.1l-0.06,-0.1l-0.05,-0.09l-0.05,-0.1l-0.06,-0.09l-0.05,-0.09l-0.06,-0.1l-0.06,-0.09l-0.06,-0.09l-0.06,-0.09l-0.18,-0.27l-0.07,-0.08l-0.06,-0.09l-0.07,-0.08l-0.07,-0.09l-0.07,-0.08l-0.07,-0.08l-0.07,-0.09l-0.07,-0.08l-0.07,-0.08l-0.07,-0.08l-0.08,-0.08l-0.07,-0.08l-0.08,-0.07l-0.07,-0.08l-0.08,-0.07l-0.08,-0.08l-0.08,-0.07l-0.24,-0.21l-0.09,-0.07l-0.08,-0.07l-0.09,-0.07l-0.08,-0.07l-0.09,-0.06l-0.09,-0.07l-0.08,-0.06l-0.27,-0.18l-0.09,-0.06l-0.09,-0.06l-0.1,-0.06l-0.09,-0.05l-0.09,-0.06l-0.1,-0.05l-0.09,-0.05l-0.1,-0.06l-0.09,-0.04l-0.1,-0.06l-0.1,-0.04l-0.1,-0.05l-0.1,-0.05l-0.1,-0.04l-0.2,-0.08l-0.1,-0.04l-0.1,-0.05l-0.11,-0.03l-0.1,-0.04l-0.11,-0.04l-0.1,-0.03l-0.11,-0.04l-0.1,-0.03l-0.11,-0.03l-0.1,-0.03l-0.11,-0.03l-0.11,-0.02l-0.11,-0.03l-0.11,-0.02l-0.11,-0.03l-0.11,-0.02l-0.11,-0.02l-0.11,-0.02l-0.11,-0.02l-0.11,-0.01l-0.11,-0.02l-0.12,-0.01l-0.22,-0.02l-0.12,-0.01l-0.11,-0.01l-0.12,-0.01h-0.11l-0.12,-0.01h-0.46l-0.12,0.01h-0.11l-0.12,0.01l-0.11,0.01l-0.12,0.01l-0.11,0.01l-0.11,0.01l-0.12,0.01l-0.11,0.02l-0.11,0.01l-0.11,0.02l-0.11,0.02l-0.11,0.02l-0.11,0.02l-0.11,0.03l-0.11,0.02l-0.11,0.03l-0.11,0.02l-0.11,0.03l-0.1,0.03l-0.11,0.03l-0.1,0.03l-0.11,0.04l-0.1,0.03l-0.11,0.04l-0.1,0.04l-0.11,0.03l-0.1,0.05l-0.1,0.03l-0.1,0.05l-0.2,0.08l-0.1,0.05l-0.2,0.1l-0.09,0.05l-0.1,0.04l-0.1,0.06l-0.09,0.05l-0.1,0.05l-0.09,0.06l-0.09,0.05l-0.1,0.06l-0.09,0.06l-0.09,0.06l-0.09,0.06l-0.18,0.12l-0.08,0.07l-0.18,0.12l-0.08,0.07l-0.09,0.07l-0.08,0.07l-0.09,0.07l-0.08,0.07l-0.16,0.14l-0.08,0.07l-0.08,0.08l-0.08,0.07l-0.07,0.08l-0.08,0.08l-0.15,0.15l-0.07,0.08l-0.14,0.16l-0.07,0.09l-0.07,0.08l-0.07,0.08l-0.07,0.09l-0.07,0.08l-0.06,0.09l-0.07,0.09l-0.06,0.08l-0.12,0.18l-0.06,0.09l-0.06,0.09l-0.06,0.09l-0.06,0.1l-0.05,0.09l-0.06,0.09l-0.05,0.1l-0.05,0.09l-0.05,0.1l-0.05,0.1l-0.05,0.09l-0.1,0.2l-0.04,0.1l-0.05,0.1l-0.04,0.1l-0.05,0.1l-0.04,0.1l-0.03,0.1l-0.04,0.11l-0.04,0.1l-0.04,0.11l-0.03,0.1l-0.03,0.11l-0.04,0.1l-0.03,0.11l-0.03,0.1l-0.03,0.11l-0.02,0.11l-0.03,0.11l-0.02,0.11l-0.03,0.11l-0.02,0.11l-0.02,0.11l-0.02,0.11l-0.02,0.11l-0.01,0.11l-0.02,0.11l-0.01,0.12l-0.01,0.11l-0.01,0.11l-0.01,0.12l-0.01,0.11l-0.01,0.12v0.11l-0.01,0.12v0.46l0.01,0.12v0.11l0.01,0.12l0.01,0.11l0.01,0.12l0.02,0.22l0.01,0.12l0.02,0.11l0.01,0.11l0.02,0.11l0.02,0.11l0.02,0.11l0.02,0.11l0.03,0.11l0.02,0.11l0.03,0.11l0.02,0.11l0.03,0.11l0.03,0.1l0.03,0.11l0.03,0.1l0.04,0.11l0.03,0.1l0.04,0.11l0.04,0.1l0.03,0.11l0.04,0.1l0.04,0.1l0.05,0.1l0.04,0.1l0.04,0.1l0.05,0.1l0.05,0.1l0.1,0.2l0.04,0.09l0.06,0.1l0.05,0.09l0.05,0.1l0.06,0.09l0.05,0.1l0.06,0.09l0.06,0.09l0.06,0.09l0.18,0.27l0.06,0.09l0.07,0.08l0.06,0.09l0.07,0.08l0.07,0.09l0.07,0.08l0.07,0.09l0.21,0.24l0.07,0.08l0.08,0.08l0.07,0.08l0.08,0.07l0.07,0.08l0.08,0.07l0.08,0.08l0.08,0.07l0.08,0.07l0.08,0.07l0.08,0.07l0.09,0.07l0.08,0.07l0.09,0.07l0.08,0.07l0.09,0.06l0.08,0.07l0.27,0.18l0.09,0.06l0.09,0.06l0.09,0.06l0.1,0.06l0.09,0.05l0.09,0.06l0.1,0.05l0.09,0.05l0.1,0.06l0.09,0.05l0.1,0.05l0.1,0.04l0.1,0.05l0.1,0.05l0.2,0.08l0.1,0.05l0.1,0.03l0.1,0.05l0.11,0.03l0.1,0.04l0.11,0.04l0.1,0.03l0.11,0.04l0.1,0.03l0.11,0.03z"></path><g opacity="1"  transform="translate(7.5 5.5009765625)  rotate(0)"><path id="路径 3" fill-rule="evenodd" style="fill:#0400FF" opacity="1" d="M6.23 8.66L6.33 8.61L6.43 8.57L6.53 8.52L6.63 8.47L6.72 8.42L6.82 8.36L6.91 8.31L7 8.25L7.09 8.18L7.18 8.12L7.27 8.05L7.36 7.98L7.44 7.91L7.52 7.84L7.61 7.76L7.69 7.69L7.76 7.6L7.84 7.52L7.91 7.44L7.98 7.36L8.05 7.27L8.12 7.18L8.18 7.09L8.25 7L8.31 6.91L8.36 6.82L8.42 6.72L8.47 6.62L8.52 6.53L8.57 6.43L8.61 6.33L8.66 6.23L8.7 6.13L8.74 6.02L8.77 5.92L8.81 5.82L8.84 5.71L8.87 5.61L8.89 5.5L8.91 5.39L8.93 5.28L8.95 5.17L8.97 5.06L8.98 4.95L8.99 4.84L9 4.73L9 4.62L9 4.51L9 4.5L9 4.39L8.99 4.27L8.99 4.16L8.98 4.05L8.96 3.93L8.95 3.82L8.93 3.71L8.91 3.6L8.88 3.49L8.86 3.38L8.83 3.27L8.8 3.17L8.76 3.06L8.73 2.96L8.69 2.85L8.65 2.75L8.6 2.65L8.55 2.55L8.51 2.45L8.46 2.36L8.4 2.26L8.35 2.17L8.29 2.08L8.23 1.99L8.17 1.9L8.1 1.81L8.04 1.72L7.97 1.64L7.9 1.56L7.83 1.48L7.75 1.4L7.68 1.32L7.6 1.24L7.52 1.17L7.44 1.1L7.36 1.03L7.27 0.96L7.19 0.9L7.1 0.83L7.01 0.77L6.92 0.71L6.83 0.65L6.74 0.6L6.64 0.54L6.54 0.49L6.45 0.44L6.35 0.4L6.25 0.35L6.15 0.31L6.04 0.27L5.94 0.24L5.83 0.2L5.73 0.17L5.62 0.14L5.51 0.11L5.4 0.09L5.29 0.07L5.18 0.05L5.07 0.04L4.95 0.02L4.84 0.01L4.72 0.01L4.61 0L4.37 0L4.26 0.01L4.14 0.01L4.03 0.02L3.92 0.04L3.81 0.05L3.7 0.07L3.59 0.09L3.48 0.11L3.37 0.14L3.26 0.17L3.15 0.2L3.05 0.24L2.95 0.27L2.84 0.31L2.74 0.35L2.64 0.4L2.54 0.44L2.45 0.49L2.35 0.54L2.25 0.59L2.16 0.65L2.07 0.71L1.98 0.77L1.89 0.83L1.8 0.89L1.72 0.96L1.63 1.03L1.55 1.1L1.47 1.17L1.39 1.24L1.32 1.31L1.24 1.39L1.17 1.47L1.09 1.55L1.02 1.63L0.96 1.72L0.89 1.8L0.83 1.89L0.77 1.98L0.71 2.07L0.65 2.16L0.6 2.25L0.54 2.35L0.49 2.44L0.44 2.54L0.4 2.64L0.35 2.74L0.31 2.84L0.27 2.95L0.24 3.05L0.2 3.15L0.17 3.26L0.14 3.37L0.12 3.48L0.09 3.58L0.07 3.7L0.05 3.81L0.04 3.92L0.02 4.03L0.01 4.14L0.01 4.26L0 4.37L0 4.49L0 4.5L0 4.54L0.01 4.59L0.02 4.64L0.03 4.68L0.05 4.72L0.07 4.76L0.1 4.8L0.13 4.84L0.16 4.87L0.2 4.9L0.24 4.92L0.28 4.95L0.32 4.97L0.36 4.98L0.41 4.99L0.45 5L0.5 5L0.55 5L0.59 4.99L0.64 4.98L0.68 4.97L0.72 4.95L0.76 4.92L0.8 4.9L0.84 4.87L0.87 4.84L0.9 4.8L0.93 4.76L0.95 4.72L0.97 4.68L0.98 4.64L0.99 4.59L1 4.55L1 4.5L1 4.49L1 4.4L1.01 4.31L1.01 4.22L1.02 4.13L1.03 4.04L1.04 3.96L1.05 3.87L1.07 3.79L1.09 3.7L1.11 3.62L1.13 3.53L1.16 3.45L1.18 3.37L1.21 3.29L1.24 3.21L1.27 3.13L1.31 3.05L1.34 2.98L1.38 2.9L1.42 2.83L1.46 2.75L1.5 2.68L1.55 2.61L1.6 2.54L1.64 2.47L1.69 2.4L1.74 2.33L1.8 2.27L1.85 2.21L1.91 2.14L1.96 2.08L2.02 2.02L2.08 1.96L2.14 1.91L2.21 1.85L2.27 1.8L2.34 1.74L2.4 1.69L2.47 1.64L2.54 1.6L2.61 1.55L2.68 1.5L2.75 1.46L2.83 1.42L2.9 1.38L2.98 1.34L3.05 1.31L3.13 1.27L3.21 1.24L3.29 1.21L3.37 1.18L3.45 1.16L3.53 1.13L3.62 1.11L3.7 1.09L3.79 1.07L3.87 1.05L3.96 1.04L4.05 1.03L4.13 1.02L4.22 1.01L4.31 1L4.4 1L4.58 1L4.67 1L4.76 1.01L4.85 1.02L4.94 1.03L5.03 1.04L5.11 1.05L5.2 1.07L5.28 1.09L5.37 1.11L5.45 1.13L5.54 1.16L5.62 1.18L5.7 1.21L5.78 1.24L5.86 1.27L5.94 1.31L6.01 1.35L6.09 1.38L6.16 1.42L6.24 1.46L6.31 1.51L6.38 1.55L6.45 1.6L6.52 1.65L6.59 1.7L6.66 1.75L6.72 1.8L6.79 1.85L6.85 1.91L6.91 1.97L6.97 2.03L7.03 2.09L7.09 2.15L7.14 2.21L7.2 2.28L7.25 2.34L7.3 2.41L7.35 2.48L7.4 2.55L7.45 2.62L7.49 2.69L7.53 2.76L7.58 2.84L7.62 2.91L7.65 2.99L7.69 3.06L7.72 3.14L7.76 3.22L7.79 3.3L7.82 3.38L7.84 3.46L7.87 3.55L7.89 3.63L7.91 3.71L7.93 3.8L7.95 3.89L7.96 3.97L7.97 4.06L7.98 4.15L7.99 4.24L8 4.33L8 4.42L8 4.51L8 4.6L8 4.68L7.99 4.77L7.98 4.86L7.97 4.94L7.96 5.03L7.95 5.11L7.93 5.19L7.92 5.28L7.89 5.36L7.87 5.44L7.85 5.53L7.82 5.61L7.8 5.69L7.77 5.77L7.73 5.85L7.7 5.92L7.67 6L7.63 6.08L7.59 6.15L7.55 6.23L7.5 6.3L7.46 6.37L7.41 6.45L7.37 6.52L7.32 6.59L7.26 6.65L7.21 6.72L7.16 6.79L7.1 6.85L7.04 6.92L6.98 6.98L6.92 7.04L6.85 7.1L6.79 7.15L6.72 7.21L6.66 7.26L6.59 7.31L6.52 7.36L6.45 7.41L6.38 7.46L6.3 7.5L6.23 7.55L6.15 7.59L6.08 7.63L6 7.66L5.93 7.7L5.85 7.73L5.77 7.77L5.69 7.8L5.61 7.82L5.53 7.85L5.45 7.87L5.36 7.89L5.28 7.91L5.2 7.93L5.11 7.95L5.03 7.96L4.94 7.97L4.86 7.98L4.77 7.99L4.68 8L4.6 8L4 8L4 11.5L4 11.55L4.01 11.59L4.02 11.64L4.03 11.68L4.05 11.72L4.08 11.76L4.1 11.8L4.13 11.84L4.16 11.87L4.2 11.9L4.24 11.92L4.28 11.95L4.32 11.97L4.36 11.98L4.41 11.99L4.45 12L4.5 12L4.55 12L4.59 11.99L4.64 11.98L4.68 11.97L4.72 11.95L4.76 11.92L4.8 11.9L4.84 11.87L4.87 11.84L4.9 11.8L4.92 11.76L4.95 11.72L4.97 11.68L4.98 11.64L4.99 11.59L5 11.55L5 11.5L5 8.97L5.07 8.97L5.18 8.95L5.28 8.93L5.39 8.91L5.5 8.89L5.61 8.86L5.71 8.84L5.82 8.8L5.92 8.77L6.03 8.74L6.13 8.7L6.23 8.66Z"></path><path id="路径 4" fill-rule="evenodd" style="fill:#0400FF" opacity="1" d="M5 12.999L4.999 12.973L4.997 12.948L4.994 12.923L4.99 12.898L4.984 12.874L4.978 12.85L4.97 12.827L4.961 12.804L4.951 12.782L4.94 12.761L4.928 12.74L4.915 12.719L4.901 12.701L4.886 12.681L4.87 12.663L4.853 12.645L4.836 12.629L4.818 12.613L4.799 12.598L4.779 12.584L4.759 12.571L4.738 12.559L4.717 12.549L4.695 12.539L4.672 12.529L4.649 12.521L4.625 12.515L4.601 12.509L4.576 12.505L4.551 12.501L4.526 12.5L4.5 12.499L4.474 12.501L4.449 12.501L4.424 12.505L4.399 12.509L4.375 12.515L4.351 12.521L4.328 12.529L4.305 12.539L4.283 12.549L4.262 12.559L4.241 12.571L4.221 12.584L4.201 12.598L4.182 12.613L4.164 12.629L4.147 12.645L4.13 12.663L4.114 12.681L4.099 12.7L4.085 12.72L4.072 12.74L4.06 12.762L4.049 12.782L4.039 12.804L4.03 12.827L4.022 12.85L4.016 12.874L4.01 12.898L4.006 12.923L4.003 12.948L4.001 12.973L4 12.999L4.001 13.025L4.003 13.05L4.006 13.075L4.01 13.1L4.016 13.124L4.022 13.147L4.03 13.171L4.039 13.193L4.049 13.216L4.06 13.238L4.072 13.258L4.085 13.278L4.099 13.298L4.114 13.317L4.13 13.335L4.147 13.352L4.164 13.369L4.182 13.385L4.201 13.399L4.221 13.413L4.241 13.426L4.262 13.438L4.283 13.45L4.305 13.46L4.328 13.469L4.351 13.476L4.375 13.483L4.399 13.489L4.424 13.493L4.449 13.496L4.474 13.499L4.5 13.499L4.526 13.498L4.551 13.496L4.576 13.493L4.601 13.489L4.625 13.483L4.649 13.476L4.672 13.47L4.695 13.46L4.717 13.45L4.738 13.438L4.759 13.426L4.779 13.413L4.799 13.399L4.818 13.385L4.836 13.369L4.853 13.352L4.87 13.335L4.886 13.318L4.901 13.298L4.915 13.278L4.928 13.258L4.94 13.237L4.951 13.216L4.961 13.193L4.97 13.171L4.978 13.147L4.984 13.124L4.99 13.1L4.994 13.075L4.997 13.05L4.999 13.025L5 12.999Z"></path></g></g></g><defs><rect id="path_0" x="0" y="0" width="24" height="24" /></defs></svg>