<svg xmlns="http://www.w3.org/2000/svg" xmlns:xlink="http://www.w3.org/1999/xlink" width="24" height="24" viewBox="0 0 24 24" fill="none"><g opacity="1" transform="translate(0 0)  rotate(0 12 12)"><g opacity="1" transform="translate(2 2)  rotate(0 10 10)"><path id="Fill 1" fill-rule="evenodd" style="fill:#5E6272" transform="translate(0 0)  rotate(0 7 10)" opacity="1" d="M4.52,0C2.03,0 0,2 0,4.45L0,14.62L0,15.56C0,18.01 2.03,20 4.52,20L9.47,20C11.97,20 14,18.01 14,15.55L14,4.44C14,1.99 11.97,0 9.49,0L4.52,0Z " /><path id="Fill 3" fill-rule="evenodd" style="fill:#FFFFFF" transform="translate(6.8 6.32)  rotate(0 6.6 3.68)" opacity="1" d="M9.6,7.36C9.8,7.36 9.99,7.28 10.13,7.13L12.98,4.23C13.12,4.08 13.2,3.88 13.2,3.68C13.2,3.48 13.12,3.28 12.98,3.13L10.13,0.22C9.84,-0.08 9.37,-0.08 9.07,0.23C8.78,0.53 8.78,1.02 9.07,1.32L10.63,2.91L9.14,2.91L0.75,2.91C0.34,2.91 0,3.25 0,3.68C0,4.11 0.34,4.45 0.75,4.45L10.63,4.45L9.07,6.04C8.78,6.34 8.78,6.83 9.07,7.13C9.22,7.28 9.41,7.36 9.6,7.36Z " /></g></g></svg>