<svg xmlns="http://www.w3.org/2000/svg" xmlns:xlink="http://www.w3.org/1999/xlink" width="24" height="24" viewBox="0 0 24 24" fill="none"><g opacity="1" transform="translate(0 0)  rotate(0 12 12)"><g opacity="1" transform="translate(2.5 2)  rotate(0 9.5 10)"><path id="Path" fill-rule="evenodd" style="fill:#5E6272" transform="translate(0 0)  rotate(0 9.5 10)" opacity="1" d="M15.1,16.36C15.43,16.56 15.83,16.66 16.19,16.66C16.91,16.66 17.62,16.26 17.99,15.62L18.71,14.42C19.08,13.75 19.11,12.99 18.73,12.37C18.54,12.07 18.26,11.77 17.9,11.58C17.62,11.44 17.43,11.21 17.27,10.94C16.75,10.08 17.05,8.95 17.92,8.44C18.94,7.87 19.27,6.6 18.68,5.61L17.99,4.43C17.41,3.44 16.13,3.09 15.12,3.67C14.22,4.15 13.07,3.83 12.55,2.98C12.38,2.7 12.29,2.4 12.31,2.1C12.34,1.71 12.22,1.34 12.04,1.04C11.66,0.42 10.97,0 10.22,0L8.78,0C8.03,0.02 7.35,0.42 6.97,1.04C6.77,1.34 6.66,1.71 6.68,2.1C6.7,2.4 6.61,2.7 6.45,2.98C5.92,3.83 4.77,4.15 3.88,3.67C2.86,3.09 1.59,3.44 1,4.43L0.31,5.61C-0.27,6.6 0.06,7.87 1.07,8.44C1.94,8.95 2.25,10.08 1.73,10.94C1.56,11.21 1.38,11.44 1.09,11.58C0.74,11.77 0.44,12.07 0.27,12.37C-0.1,12.99 -0.08,13.77 0.29,14.42L1,15.62C1.38,16.26 2.08,16.66 2.82,16.66C3.17,16.66 3.57,16.56 3.9,16.36C4.16,16.19 4.46,16.13 4.8,16.13C5.81,16.13 6.66,16.96 6.68,17.95C6.68,19.1 7.62,20 8.81,20L10.2,20C11.37,20 12.31,19.1 12.31,17.95C12.34,16.96 13.19,16.13 14.2,16.13C14.53,16.13 14.84,16.19 15.1,16.36Z " /><path id="Path" fill-rule="evenodd" style="fill:#FFFFFF" transform="translate(6.61 7.18)  rotate(0 2.885 2.825)" opacity="1" d="M5.77,2.83C5.77,1.26 4.5,0 2.9,0C1.3,0 0,1.26 0,2.83C0,4.4 1.3,5.65 2.9,5.65C4.5,5.65 5.77,4.4 5.77,2.83Z " /></g></g></svg>