<svg xmlns="http://www.w3.org/2000/svg" xmlns:xlink="http://www.w3.org/1999/xlink" width="24" height="24" viewBox="0 0 24 24" fill="none"><g opacity="1"  transform="translate(0 0)  rotate(0)"><mask id="bg-mask-0" fill="white"><use transform="translate(0 0)  rotate(0)" xlink:href="#path_0"></use></mask><g mask="url(#bg-mask-0)" ><path id="分组 1" fill-rule="evenodd" style="fill:#0400FF" opacity="1" d="M11.25,14.91l-0.07,-0.02l-0.07,-0.02l-0.07,-0.03l-0.07,-0.02l-0.07,-0.03l-0.07,-0.03l-0.06,-0.03l-0.07,-0.03l-0.06,-0.03l-0.07,-0.03l-0.06,-0.04l-0.07,-0.03l-0.06,-0.04l-0.06,-0.04l-0.06,-0.04l-0.06,-0.05l-0.05,-0.04l-0.06,-0.05l-0.05,-0.04l-0.06,-0.05l-0.05,-0.05l-0.05,-0.05l-0.05,-0.05l-0.05,-0.05l-0.05,-0.06l-0.04,-0.05l-0.05,-0.06l-0.04,-0.06l-0.05,-0.05l-0.04,-0.06l-0.04,-0.06l-0.03,-0.06l-0.04,-0.07l-0.04,-0.06l-0.03,-0.06l-0.03,-0.07l-0.03,-0.07l-0.03,-0.06l-0.03,-0.07l-0.03,-0.07l-0.02,-0.07l-0.02,-0.07l-0.03,-0.07l-0.02,-0.07l-0.01,-0.07l-0.02,-0.08l-0.01,-0.07l-0.02,-0.07l-0.01,-0.08v-0.07l-0.02,-0.16v-0.3l0.02,-0.16v-0.07l0.01,-0.08l0.02,-0.07l0.01,-0.07l0.02,-0.08l0.01,-0.07l0.02,-0.07l0.02,-0.07l0.03,-0.07l0.02,-0.07l0.03,-0.07l0.03,-0.07l0.03,-0.06l0.03,-0.07l0.03,-0.06l0.03,-0.07l0.04,-0.06l0.03,-0.07l0.04,-0.06l0.04,-0.06l0.04,-0.06l0.05,-0.05l0.04,-0.06l0.05,-0.06l0.04,-0.05l0.05,-0.06l0.2,-0.2l0.06,-0.05l0.05,-0.04l0.06,-0.05l0.05,-0.04l0.06,-0.05l0.06,-0.04l0.06,-0.04l0.06,-0.03l0.07,-0.04l0.06,-0.04l0.06,-0.03l0.07,-0.03l0.07,-0.03l0.06,-0.03l0.07,-0.03l0.07,-0.03l0.07,-0.02l0.07,-0.02l0.07,-0.03l0.07,-0.02l0.07,-0.01l0.08,-0.02l0.07,-0.01l0.07,-0.02h0.08l0.07,-0.01l0.16,-0.02h0.3l0.08,0.01h0.08l0.07,0.02h0.08l0.07,0.02l0.07,0.01l0.08,0.02l0.07,0.01l0.07,0.02l0.07,0.02l0.07,0.03l0.07,0.02l0.07,0.03l0.07,0.03l0.06,0.03l0.07,0.03l0.07,0.03l0.06,0.03l0.06,0.04l0.07,0.03l0.12,0.08l0.06,0.04l0.06,0.05l0.05,0.04l0.06,0.05l0.05,0.04l0.06,0.05l0.05,0.05l0.05,0.05l0.05,0.05l0.05,0.05l0.05,0.06l0.04,0.05l0.05,0.06l0.04,0.06l0.05,0.05l0.04,0.06l0.04,0.06l0.04,0.06l0.03,0.07l0.04,0.06l0.03,0.06l0.03,0.07l0.03,0.07l0.03,0.06l0.03,0.07l0.03,0.07l0.04,0.14l0.03,0.07l0.02,0.07l0.01,0.07l0.02,0.08l0.01,0.07l0.02,0.07l0.01,0.08v0.07l0.01,0.08l0.01,0.08v0.3l-0.01,0.08l-0.01,0.08v0.07l-0.01,0.08l-0.02,0.07l-0.01,0.07l-0.02,0.08l-0.01,0.07l-0.02,0.07l-0.02,0.07l-0.03,0.07l-0.02,0.07l-0.03,0.07l-0.03,0.07l-0.03,0.06l-0.03,0.07l-0.03,0.07l-0.03,0.06l-0.04,0.06l-0.03,0.07l-0.04,0.06l-0.04,0.06l-0.04,0.06l-0.05,0.05l-0.04,0.06l-0.05,0.06l-0.04,0.05l-0.05,0.06l-0.05,0.05l-0.05,0.05l-0.05,0.05l-0.05,0.05l-0.06,0.05l-0.05,0.04l-0.06,0.05l-0.05,0.04l-0.06,0.05l-0.06,0.04l-0.06,0.04l-0.06,0.04l-0.07,0.03l-0.06,0.04l-0.06,0.03l-0.07,0.03l-0.07,0.03l-0.06,0.03l-0.07,0.03l-0.07,0.03l-0.07,0.02l-0.07,0.02l-0.07,0.03l-0.07,0.02l-0.07,0.01l-0.08,0.02l-0.07,0.01l-0.07,0.02h-0.08l-0.07,0.01l-0.08,0.01l-0.08,0.01h-0.3l-0.08,-0.01l-0.08,-0.01l-0.07,-0.01h-0.08l-0.07,-0.02l-0.07,-0.01l-0.08,-0.02zM11.001,13.731l0.05,0.03l0.08,0.04l0.05,0.02l0.04,0.02l0.05,0.02l0.04,0.02l0.05,0.01l0.04,0.02l0.05,0.01l0.05,0.02l0.05,0.01l0.05,0.01l0.05,0.01l0.04,0.01h0.05l0.05,0.01h0.05l0.06,0.01h0.2l0.05,-0.01h0.05l0.05,-0.01h0.05l0.05,-0.01l0.05,-0.01l0.1,-0.02l0.05,-0.02l0.04,-0.01l0.05,-0.02l0.05,-0.01l0.04,-0.02l0.05,-0.02l0.08,-0.04l0.05,-0.02l0.04,-0.02l0.04,-0.03l0.05,-0.02l0.03,-0.03l0.05,-0.02l0.04,-0.03l0.03,-0.03l0.12,-0.09l0.03,-0.03l0.04,-0.03l0.03,-0.04l0.04,-0.03l0.03,-0.04l0.03,-0.03l0.09,-0.12l0.03,-0.03l0.03,-0.04l0.02,-0.04l0.03,-0.04l0.02,-0.05l0.03,-0.04l0.02,-0.04l0.02,-0.04l0.02,-0.05l0.02,-0.04l0.02,-0.05l0.02,-0.04l0.01,-0.05l0.02,-0.05l0.01,-0.04l0.02,-0.05l0.02,-0.1l0.01,-0.05l0.01,-0.05v-0.05l0.01,-0.05v-0.05l0.01,-0.05v-0.2l-0.01,-0.05v-0.06l-0.01,-0.05v-0.05l-0.01,-0.05l-0.01,-0.04l-0.01,-0.05l-0.01,-0.05l-0.02,-0.05l-0.01,-0.04l-0.02,-0.05l-0.01,-0.05l-0.02,-0.04l-0.02,-0.05l-0.02,-0.04l-0.02,-0.05l-0.04,-0.08l-0.03,-0.04l-0.02,-0.05l-0.03,-0.04l-0.02,-0.04l-0.06,-0.08l-0.03,-0.03l-0.03,-0.04l-0.03,-0.04l-0.03,-0.03l-0.03,-0.04l-0.04,-0.03l-0.03,-0.04l-0.04,-0.03l-0.03,-0.03l-0.12,-0.09l-0.03,-0.03l-0.04,-0.03l-0.05,-0.03l-0.03,-0.02l-0.05,-0.03l-0.08,-0.04l-0.05,-0.02l-0.04,-0.02l-0.04,-0.02l-0.05,-0.02l-0.04,-0.02l-0.05,-0.02l-0.05,-0.01l-0.04,-0.01l-0.05,-0.02l-0.05,-0.01l-0.1,-0.02l-0.05,-0.01h-0.05l-0.05,-0.01h-0.05l-0.05,-0.01h-0.2l-0.06,0.01h-0.1l-0.05,0.01l-0.05,0.01l-0.04,0.01l-0.05,0.01l-0.05,0.01l-0.05,0.01l-0.05,0.02l-0.04,0.01l-0.05,0.02l-0.04,0.02l-0.05,0.02l-0.04,0.02l-0.05,0.02l-0.08,0.04l-0.05,0.02l-0.04,0.03l-0.04,0.02l-0.12,0.09l-0.04,0.03l-0.03,0.03l-0.04,0.03l-0.03,0.03l-0.04,0.03l-0.04,0.03l-0.03,0.04l-0.03,0.04l-0.03,0.03l-0.03,0.04l-0.03,0.03l-0.03,0.04l-0.09,0.12l-0.02,0.04l-0.03,0.04l-0.02,0.05l-0.04,0.08l-0.02,0.05l-0.02,0.04l-0.02,0.05l-0.02,0.04l-0.02,0.05l-0.01,0.05l-0.02,0.04l-0.01,0.05l-0.01,0.05l-0.02,0.1l-0.01,0.04l-0.01,0.05v0.1l-0.01,0.06v0.2l0.01,0.05v0.1l0.02,0.1l0.02,0.1l0.01,0.05l0.01,0.05l0.02,0.04l0.01,0.05l0.02,0.05l0.02,0.04l0.02,0.05l0.02,0.04l0.02,0.04l0.02,0.05l0.04,0.08l0.03,0.05l0.02,0.03l0.03,0.05l0.03,0.04l0.03,0.03l0.09,0.12l0.03,0.03l0.03,0.04l0.03,0.03l0.04,0.04l0.04,0.03l0.03,0.03l0.04,0.03l0.03,0.03l0.04,0.03l0.08,0.06l0.04,0.02l0.04,0.03z"></path><path id="分组 2" fill-rule="evenodd" style="fill:#0400FF" opacity="1" d="M19.779,14.011l0.06,0.07l0.06,0.07l0.14,0.12l0.07,0.06l0.08,0.06l0.07,0.06l0.16,0.1l0.03,0.02l0.03,0.02l0.03,0.02l0.03,0.02l0.02,0.02l0.03,0.02l0.03,0.03l0.02,0.02l0.03,0.02l0.02,0.03l0.02,0.02l0.03,0.03l0.02,0.02l0.02,0.03l0.02,0.03l0.02,0.02l0.02,0.03l0.02,0.03l0.02,0.03l0.02,0.03l0.01,0.03l0.02,0.03l0.02,0.03l0.01,0.03l0.03,0.06l0.02,0.06l0.03,0.06l0.02,0.06l0.01,0.07l0.02,0.06l0.01,0.07v0.07l0.01,0.03v0.23l-0.01,0.04v0.07l-0.01,0.03l-0.01,0.03l-0.01,0.04v0.03l-0.01,0.03l-0.01,0.04l-0.01,0.03l-0.01,0.03l-0.01,0.04l-0.02,0.03l-0.01,0.03l-0.01,0.03l-0.02,0.03l-0.05,0.1l-0.05,0.09l-0.1,0.18l-0.05,0.09l-0.05,0.09l-0.05,0.08l-0.06,0.09l-0.05,0.09l-0.06,0.09l-0.05,0.08l-0.06,0.09l-0.05,0.08l-0.06,0.09l-0.06,0.08l-0.06,0.09l-0.04,0.05l-0.05,0.05l-0.04,0.05l-0.05,0.04l-0.09,0.09l-0.06,0.03l-0.05,0.04l-0.05,0.04l-0.06,0.03l-0.05,0.03l-0.06,0.02l-0.06,0.03l-0.06,0.02l-0.06,0.02l-0.06,0.01l-0.06,0.02l-0.06,0.01l-0.06,0.01h-0.07l-0.06,0.01h-0.06l-0.07,-0.01h-0.06l-0.06,-0.01l-0.07,-0.01l-0.06,-0.01l-0.06,-0.02l-0.06,-0.02l-0.07,-0.02l-0.06,-0.02l-0.06,-0.03l-0.03,-0.02l-0.04,-0.02l-0.03,-0.02l-0.04,-0.02l-0.07,-0.03l-0.08,-0.03l-0.07,-0.03l-0.08,-0.03l-0.16,-0.04l-0.08,-0.02l-0.08,-0.02l-0.24,-0.03l-0.09,-0.01h-0.32l-0.08,0.01h-0.08l-0.07,0.01l-0.08,0.01l-0.07,0.02l-0.07,0.01l-0.08,0.02l-0.07,0.01l-0.07,0.02l-0.07,0.02l-0.07,0.03l-0.07,0.02l-0.07,0.03l-0.07,0.02l-0.06,0.03l-0.07,0.03l-0.06,0.04l-0.07,0.03l-0.06,0.04l-0.06,0.03l-0.07,0.04l-0.06,0.04l-0.06,0.04l-0.05,0.04l-0.06,0.05l-0.06,0.04l-0.05,0.05l-0.06,0.05l-0.1,0.1l-0.05,0.05l-0.05,0.05l-0.05,0.06l-0.04,0.05l-0.05,0.06l-0.04,0.05l-0.04,0.06l-0.05,0.06l-0.04,0.06l-0.03,0.06l-0.04,0.07l-0.04,0.06l-0.03,0.06l-0.03,0.07l-0.03,0.06l-0.03,0.07l-0.03,0.07l-0.03,0.07l-0.02,0.07l-0.02,0.07l-0.03,0.07l-0.01,0.07l-0.02,0.07l-0.02,0.07l-0.01,0.08l-0.01,0.07l-0.02,0.08v0.07l-0.01,0.08l-0.01,0.07v0.25l-0.01,0.04v0.04l-0.01,0.05l-0.02,0.04l-0.01,0.04l-0.01,0.04l-0.02,0.04l-0.02,0.04l-0.02,0.03l-0.04,0.08l-0.02,0.03l-0.03,0.03l-0.03,0.03l-0.03,0.03l-0.03,0.03l-0.03,0.03l-0.03,0.03l-0.03,0.02l-0.04,0.03l-0.03,0.02l-0.12,0.06l-0.04,0.01l-0.04,0.02l-0.08,0.02l-0.05,0.01h-0.04l-0.14,0.02l-0.15,0.01l-0.14,0.01l-0.15,0.01l-0.15,0.01h-0.14l-0.15,0.01h-0.3l-0.14,-0.01h-0.15l-0.15,-0.01l-0.14,-0.01l-0.15,-0.01l-0.14,-0.01l-0.15,-0.02l-0.04,-0.01h-0.05l-0.04,-0.01l-0.04,-0.02l-0.04,-0.01l-0.04,-0.02l-0.04,-0.01l-0.04,-0.02l-0.03,-0.02l-0.04,-0.02l-0.03,-0.03l-0.04,-0.02l-0.03,-0.03l-0.03,-0.03l-0.03,-0.03l-0.03,-0.03l-0.03,-0.03l-0.02,-0.03l-0.03,-0.04l-0.02,-0.03l-0.02,-0.04l-0.02,-0.04l-0.02,-0.03l-0.01,-0.04l-0.02,-0.04l-0.01,-0.04l-0.01,-0.05l-0.02,-0.08v-0.04l-0.00999,-0.05v-0.2l-0.01,-0.07l-0.01,-0.08v-0.07l-0.01,-0.08l-0.02,-0.07l-0.01,-0.08l-0.02,-0.07l-0.01,-0.07l-0.04,-0.14l-0.03,-0.07l-0.02,-0.07l-0.03,-0.07l-0.03,-0.07l-0.02,-0.07l-0.04,-0.06l-0.03,-0.07l-0.03,-0.06l-0.04,-0.06l-0.03,-0.07l-0.04,-0.06l-0.08,-0.12l-0.05,-0.06l-0.04,-0.05l-0.04,-0.06l-0.05,-0.05l-0.05,-0.06l-0.05,-0.05l-0.05,-0.05l-0.05,-0.05l-0.05,-0.05l-0.06,-0.05l-0.05,-0.05l-0.06,-0.04l-0.05,-0.05l-0.06,-0.04l-0.06,-0.04l-0.06,-0.04l-0.06,-0.04l-0.07,-0.03l-0.06,-0.04l-0.06,-0.03l-0.07,-0.04l-0.07,-0.03l-0.06,-0.03l-0.07,-0.02l-0.07,-0.03l-0.07,-0.02l-0.07,-0.03l-0.07,-0.02l-0.07,-0.02l-0.07,-0.01l-0.08,-0.02l-0.07,-0.01l-0.07,-0.02l-0.08,-0.01l-0.07,-0.01h-0.08l-0.08,-0.01h-0.32l-0.08,0.01l-0.09,0.01l-0.08,0.01l-0.08,0.01l-0.08,0.02l-0.08,0.01l-0.08,0.02l-0.08,0.02l-0.08,0.03l-0.08,0.02l-0.07,0.03l-0.08,0.03l-0.07,0.03l-0.08,0.03l-0.06,0.03l-0.06,0.02l-0.06,0.03l-0.06,0.01l-0.06,0.02l-0.12,0.02l-0.06,0.01h-0.06l-0.06,0.01h-0.07l-0.06,-0.01h-0.06l-0.06,-0.01l-0.06,-0.01l-0.06,-0.02l-0.06,-0.01l-0.06,-0.02l-0.06,-0.02l-0.05,-0.02l-0.06,-0.03l-0.05,-0.03l-0.06,-0.03l-0.05,-0.03l-0.05,-0.04l-0.05,-0.03l-0.05,-0.04l-0.04,-0.05l-0.05,-0.04l-0.04,-0.05l-0.04,-0.05l-0.04,-0.05l-0.07,-0.08l-0.06,-0.08l-0.07,-0.08l-0.06,-0.08l-0.06,-0.08l-0.05,-0.09l-0.06,-0.08l-0.06,-0.09l-0.05,-0.09l-0.05,-0.09l-0.06,-0.08l-0.05,-0.09l-0.05,-0.09l-0.05,-0.09l-0.04,-0.1l-0.05,-0.09l-0.01,-0.03l-0.02,-0.03l-0.01,-0.03l-0.02,-0.04l-0.01,-0.03l-0.01,-0.03l-0.01,-0.04l-0.01,-0.03l-0.01,-0.03v-0.04l-0.01,-0.03l-0.01,-0.03v-0.03l-0.01,-0.04v-0.03l-0.01,-0.04v-0.2l0.01,-0.06v-0.07l0.01,-0.06l0.02,-0.07l0.01,-0.06l0.03,-0.07l0.02,-0.06l0.02,-0.06l0.03,-0.06l0.03,-0.06l0.02,-0.03l0.01,-0.03l0.02,-0.03l0.02,-0.02l0.04,-0.06l0.02,-0.03l0.02,-0.02l0.02,-0.03l0.02,-0.03l0.02,-0.02l0.03,-0.02l0.02,-0.03l0.03,-0.02l0.02,-0.03l0.03,-0.02l0.02,-0.02l0.03,-0.02l0.03,-0.02l0.03,-0.02l0.03,-0.02l0.03,-0.02l0.08,-0.05l0.07,-0.06l0.08,-0.06l0.07,-0.05l0.07,-0.06l0.07,-0.07l0.07,-0.06l0.06,-0.07l0.07,-0.07l0.06,-0.07l0.06,-0.07l0.06,-0.08l0.05,-0.07l0.1,-0.16l0.05,-0.08l0.05,-0.08l0.04,-0.09l0.04,-0.08l0.02,-0.05l0.02,-0.04l0.01,-0.04l0.02,-0.05l0.02,-0.04l0.01,-0.05l0.02,-0.04l0.01,-0.05l0.02,-0.05l0.01,-0.04l0.01,-0.05l0.01,-0.05l0.01,-0.04l0.04,-0.2v-0.04l0.01,-0.05l0.01,-0.05v-0.1l0.01,-0.05v-0.3l-0.01,-0.05v-0.1l-0.01,-0.05l-0.01,-0.05v-0.05l-0.01,-0.04l-0.03,-0.15l-0.01,-0.04l-0.01,-0.05l-0.01,-0.05l-0.01,-0.04l-0.02,-0.05l-0.01,-0.05l-0.02,-0.04l-0.01,-0.05l-0.02,-0.04l-0.02,-0.05l-0.01,-0.04l-0.02,-0.04l-0.02,-0.05l-0.02,-0.04l-0.02,-0.04l-0.04,-0.09l-0.05,-0.08l-0.05,-0.08l-0.1,-0.16l-0.06,-0.08l-0.05,-0.07l-0.06,-0.07l-0.06,-0.07002l-0.07,-0.07l-0.06,-0.07l-0.07,-0.06l-0.07,-0.06l-0.07,-0.06l-0.08,-0.06l-0.07,-0.06l-0.08,-0.05l-0.08,-0.05l-0.03,-0.02l-0.03,-0.02l-0.03,-0.02l-0.02,-0.02l-0.03,-0.02l-0.03,-0.03l-0.02,-0.02l-0.03,-0.02l-0.02,-0.03l-0.03,-0.02l-0.02,-0.03l-0.02,-0.02l-0.03,-0.03l-0.02,-0.02l-0.02,-0.03l-0.02,-0.03l-0.02,-0.02l-0.02,-0.03l-0.02,-0.03l-0.02,-0.03l-0.01,-0.03l-0.02,-0.03l-0.01,-0.03l-0.02,-0.03l-0.03,-0.06l-0.02,-0.06l-0.02,-0.06l-0.02,-0.07l-0.02,-0.06l-0.01,-0.07l-0.01,-0.06l-0.01,-0.07l-0.01,-0.03v-0.24l0.01,-0.03v-0.03l0.01,-0.04v-0.03l0.01,-0.04l0.01,-0.03v-0.03l0.01,-0.04l0.01,-0.03l0.01,-0.03l0.01,-0.03l0.02,-0.04l0.01,-0.03l0.01,-0.03l0.02,-0.04l0.01,-0.03l0.1,-0.18l0.05,-0.09l0.05,-0.09l0.05,-0.09l0.05,-0.09l0.06,-0.09l0.05,-0.09l0.05,-0.08l0.06,-0.09l0.05,-0.09l0.06,-0.08l0.06,-0.09l0.06,-0.08l0.06,-0.09l0.06,-0.08l0.03,-0.05l0.05,-0.05l0.04,-0.05l0.05,-0.05l0.05,-0.04l0.05,-0.04l0.05,-0.04l0.05,-0.03l0.05,-0.04l0.12,-0.06l0.05,-0.02l0.06,-0.03l0.06,-0.02l0.06,-0.02l0.06,-0.02l0.06,-0.01l0.07,-0.01l0.06,-0.01h0.06l0.06,-0.01h0.13l0.06,0.01l0.07,0.01l0.12,0.02l0.07,0.02l0.06,0.01l0.06,0.03l0.06,0.02l0.06,0.03l0.04,0.02l0.03,0.02l0.04,0.02l0.03,0.01l0.08,0.04l0.07,0.03l0.07,0.03l0.08,0.03l0.08,0.02l0.08,0.02l0.16,0.04l0.08,0.01l0.08,0.01l0.09,0.01h0.08l0.09,0.01h0.16l0.07,-0.01h0.08l0.08,-0.01l0.07,-0.01l0.08,-0.01l0.07,-0.01l0.07,-0.01l0.08,-0.02l0.07,-0.02l0.07,-0.02l0.07,-0.01l0.07,-0.03l0.07,-0.02l0.14,-0.06l0.06,-0.03l0.07,-0.03l0.07,-0.03l0.06,-0.03l0.06,-0.04l0.07,-0.04l0.06,-0.03l0.12,-0.08l0.06,-0.05l0.05,-0.04l0.06,-0.05l0.05,-0.04l0.06,-0.05l0.05,-0.05l0.05,-0.05l0.05,-0.05l0.05,-0.05l0.05,-0.06l0.05,-0.05l0.04,-0.06l0.04,-0.06l0.05,-0.06l0.04,-0.05l0.04,-0.06l0.04,-0.07l0.03,-0.06l0.04,-0.06l0.03,-0.07l0.03,-0.06l0.04,-0.07l0.02,-0.06l0.03,-0.07l0.03,-0.07l0.02,-0.07l0.03,-0.07l0.02,-0.07l0.02,-0.07l0.01,-0.07l0.02,-0.08l0.01,-0.07l0.02,-0.08l0.01,-0.07v-0.08l0.01,-0.07l0.01,-0.08v-0.24l0.00999,-0.04l0.01,-0.05l0.01,-0.04l0.01,-0.04l0.01,-0.04l0.01,-0.04l0.04,-0.08l0.02,-0.04l0.02,-0.03l0.02,-0.04l0.02,-0.03l0.03,-0.03l0.03,-0.04l0.03,-0.03l0.03,-0.03l0.03,-0.02l0.03,-0.03l0.03,-0.03l0.04,-0.02l0.03,-0.02l0.08,-0.04l0.04,-0.02l0.04,-0.02l0.08,-0.02l0.04,-0.01l0.05,-0.01l0.04,-0.01l0.14,-0.01l0.15,-0.01l0.15,-0.01l0.14,-0.01l0.3,-0.02h0.59l0.14,0.01l0.15,0.01l0.15,0.01l0.14,0.01l0.15,0.01l0.14,0.02h0.04l0.05,0.01l0.04,0.01l0.04,0.01l0.04,0.02l0.04,0.01l0.04,0.02l0.08,0.04l0.03,0.02l0.04,0.03l0.03,0.02l0.03,0.03l0.03,0.03l0.09,0.09l0.02,0.03l0.03,0.04l0.02,0.03l0.02,0.04l0.02,0.03l0.02,0.04l0.01,0.04l0.02,0.04l0.01,0.04l0.01,0.04l0.01,0.05l0.01,0.04v0.04l0.01,0.04v0.2l0.01,0.08l0.01,0.08v0.07l0.02,0.07l0.01,0.08l0.01,0.07l0.02,0.08l0.02,0.07l0.01,0.07l0.03,0.07l0.02,0.07l0.02,0.07l0.03,0.07l0.03,0.07l0.03,0.06l0.03,0.07l0.03,0.06l0.03,0.07l0.08,0.12l0.03,0.06l0.04,0.07l0.05,0.06l0.04,0.05l0.04,0.06l0.05,0.06l0.04,0.05l0.05,0.06l0.05,0.05l0.05,0.05l0.05,0.05l0.05,0.05l0.06,0.05l0.05,0.04l0.06,0.05l0.06,0.04l0.05,0.05l0.06,0.04l0.06,0.04l0.07,0.03l0.06,0.04l0.06,0.04l0.07,0.03l0.06,0.03l0.07,0.03l0.06,0.03l0.07,0.03l0.07,0.03l0.07,0.02l0.07,0.02l0.07,0.03l0.07,0.01l0.07,0.02l0.08,0.02l0.14,0.02l0.08,0.01l0.07,0.01l0.08,0.01h0.08l0.07,0.01h0.17l0.08,-0.01h0.09l0.24,-0.03l0.09,-0.02l0.08,-0.01l0.07,-0.02l0.08,-0.03l0.08,-0.02l0.08,-0.02l0.08,-0.03l0.07,-0.03l0.08,-0.03l0.07,-0.04l0.06,-0.02l0.06,-0.03l0.06,-0.02l0.06,-0.02l0.06,-0.01l0.12,-0.02l0.06,-0.01l0.06,-0.01h0.19l0.18,0.03l0.06,0.01l0.06,0.02l0.06,0.02l0.06,0.02l0.05,0.02l0.06,0.03l0.05,0.03l0.06,0.03l0.05,0.03l0.05,0.03l0.05,0.04l0.05,0.04l0.05,0.04l0.04,0.05l0.05,0.04l0.04,0.06l0.04,0.04l0.06,0.08l0.07,0.09l0.06,0.08l0.12,0.16l0.06,0.09l0.05,0.08l0.06,0.09l0.05,0.09l0.06,0.08l0.05,0.09l0.05,0.09l0.05,0.09l0.05,0.09l0.04,0.09l0.05,0.1l0.02,0.03l0.01,0.03l0.01,0.03l0.02,0.04l0.01,0.03l0.02,0.06l0.01,0.04l0.01,0.03l0.01,0.03v0.04l0.01,0.03v0.03l0.01,0.04v0.03l0.01,0.03v0.27l-0.01,0.07l-0.01,0.06l-0.02,0.07l-0.01,0.06l-0.02,0.06l-0.02,0.07l-0.03,0.06l-0.03,0.06l-0.03,0.06l-0.01,0.03l-0.02,0.03l-0.02,0.03l-0.02,0.02l-0.02,0.03l-0.02,0.03l-0.02,0.02l-0.02,0.03l-0.02,0.03l-0.02,0.02l-0.02,0.03l-0.03,0.02l-0.02,0.03l-0.03,0.02l-0.02,0.02l-0.03,0.03l-0.02,0.02l-0.03,0.02l-0.03,0.02l-0.06,0.04l-0.03,0.02l-0.07,0.05l-0.08,0.06l-0.08,0.05l-0.07,0.06l-0.07,0.06l-0.07,0.06l-0.07,0.07l-0.06,0.07l-0.07,0.07l-0.06,0.07002l-0.06,0.07l-0.05,0.07l-0.06,0.08l-0.05,0.08l-0.05,0.08l-0.05,0.08l-0.05,0.08l-0.04,0.09l-0.04,0.08l-0.02,0.05l-0.02,0.04l-0.01,0.04l-0.02,0.05l-0.02,0.04l-0.01,0.05l-0.02,0.04l-0.01,0.05l-0.01,0.04l-0.02,0.05l-0.01,0.05l-0.01,0.05l-0.01,0.04l-0.04,0.2v0.04l-0.01,0.05v0.05l-0.01,0.05v0.05l-0.01,0.05v0.3l0.01,0.05v0.05l0.01,0.05v0.05l0.01,0.05v0.04l0.04,0.2l0.01,0.04l0.01,0.05l0.01,0.05l0.02,0.04l0.02,0.1l0.02,0.04l0.01,0.05l0.02,0.04l0.02,0.05l0.02,0.04l0.01,0.04l0.02,0.05l0.02,0.04l0.02,0.04l0.05,0.09l0.04,0.08l0.05,0.08l0.05,0.08l0.05,0.08l0.06,0.07l0.05,0.08l0.06,0.07zM3.90901,8.34098l0.01,0.02l0.01,0.03l0.02,0.04l0.01,0.01v0.01h0.01v0.01l0.01,0.01l0.01,0.01v0.01l0.02,0.02v0.01l0.01,0.01h0.01l0.01,0.01v0.01l0.01,0.01h0.01l0.01,0.01l0.01,0.01h0.01l0.01,0.01l0.01,0.01l0.02,0.01l0.08,0.06l0.11,0.07l0.1,0.07l0.1,0.08l0.09,0.08l0.09,0.08l0.1,0.09l0.08,0.09l0.09,0.09l0.08,0.09l0.08,0.1l0.08,0.1l0.07,0.1l0.07,0.1l0.07,0.11l0.06,0.11002l0.06,0.11l0.06,0.1l0.02,0.06l0.06,0.12l0.02,0.06l0.02,0.06l0.03,0.06l0.04,0.12l0.02,0.06l0.04,0.12l0.01,0.06l0.02,0.06l0.02,0.07l0.01,0.06l0.01,0.06l0.02,0.07l0.01,0.06l0.01,0.07l0.01,0.06v0.07l0.01,0.06l0.01,0.07v0.06l0.01,0.07v0.4l-0.01,0.06v0.07l-0.01,0.07l-0.01,0.06v0.07l-0.01,0.06l-0.01,0.07l-0.01,0.06l-0.02,0.06l-0.01,0.07l-0.01,0.06l-0.02,0.06l-0.02,0.07l-0.01,0.06l-0.02,0.06l-0.02,0.06l-0.02,0.06l-0.02,0.06l-0.02,0.06l-0.02,0.06l-0.03,0.06l-0.02,0.06l-0.03,0.06l-0.05,0.11l-0.06,0.11l-0.06,0.11l-0.06,0.11l-0.07,0.11l-0.07,0.1l-0.07,0.1l-0.08,0.1l-0.08,0.1l-0.16,0.18l-0.09,0.09l-0.09,0.09l-0.09,0.08l-0.1,0.08l-0.09,0.08l-0.1,0.07l-0.1,0.07l-0.1,0.06l-0.02,0.02h-0.01l-0.01,0.01v0.01h-0.01l-0.01,0.01l-0.02,0.02h-0.01v0.01l-0.01,0.01l-0.04,0.04v0.01l-0.02,0.02v0.01l-0.01,0.01l-0.01,0.03l-0.01,0.02l-0.01,0.02l-0.01,0.02v0.02l-0.01,0.02v0.04l-0.01,0.02v0.11l0.01,0.01v0.04l0.01,0.02v0.02l0.01,0.01v0.01l0.01,0.01v0.02l0.01,0.01l0.04,0.08l0.04,0.08l0.04,0.08l0.05,0.08l0.04,0.08l0.05,0.07l0.04,0.08l0.05,0.07l0.05,0.08l0.04,0.07l0.05,0.07l0.05,0.07l0.05,0.07l0.06,0.07l0.05,0.06l0.07,0.09l0.03,0.04l0.01,0.02l0.02,0.01l0.01,0.02l0.02,0.01l0.01,0.01l0.02,0.01l0.01,0.01l0.02,0.01l0.01,0.01l0.04,0.02l0.02,0.01h0.01l0.02,0.01h0.02l0.02,0.01h0.05l0.02,0.01h0.04l0.02,-0.01h0.04l0.02,-0.01h0.02l0.01,-0.01h0.02l0.02,-0.01l0.04,-0.02l0.08,-0.04l0.2,-0.08l0.11,-0.03l0.1,-0.04l0.1,-0.03l0.11,-0.03l0.11,-0.02l0.1,-0.03l0.11,-0.02l0.11,-0.01l0.11,-0.02l0.11,-0.01l0.11,-0.01h0.44l0.1,0.01l0.1,0.01l0.1,0.01l0.1,0.01l0.1,0.02l0.1,0.02l0.09,0.02l0.1,0.02l0.09,0.03l0.1,0.03l0.09,0.03l0.1,0.03l0.09,0.04l0.09,0.03l0.09,0.04l0.08,0.04l0.09,0.05l0.09,0.04l0.08,0.05l0.09,0.05l0.16,0.1l0.08,0.06l0.07,0.05l0.08,0.06l0.07,0.06l0.08,0.06l0.07,0.07l0.07,0.06l0.14,0.14l0.06,0.07l0.05999,0.07l0.07,0.07l0.06,0.08l0.06,0.07l0.05,0.08l0.06,0.08l0.1,0.16l0.05,0.09l0.05,0.08l0.04,0.09l0.05,0.08l0.04,0.09l0.04,0.09l0.03,0.09l0.04,0.09l0.03,0.1l0.03,0.09l0.03,0.09l0.02,0.1l0.03,0.1l0.02,0.09l0.02,0.1l0.01,0.1l0.02,0.1l0.03,0.3v0.15l0.08,0.01l0.13,0.01l0.39,0.03h0.13l0.14,0.01h0.26l0.14,-0.01h0.13l0.13,-0.01l0.14,-0.01l0.13,-0.01l0.13,-0.01h0.07v-0.05l0.01,-0.11v-0.1l0.02,-0.2l0.02,-0.1l0.01,-0.1l0.02,-0.1l0.02,-0.09l0.03,-0.1l0.02,-0.09l0.03,-0.1l0.03,-0.09l0.03,-0.1l0.08,-0.18l0.03,-0.09l0.05,-0.09l0.04,-0.08l0.04,-0.09l0.05,-0.08l0.05,-0.09l0.1,-0.16l0.06,-0.08l0.06,-0.08l0.05,-0.07l0.06,-0.08l0.07,-0.07l0.06,-0.07l0.07,-0.07l0.06,-0.07l0.07,-0.07l0.07,-0.06l0.07,-0.07l0.08,-0.06l0.07,-0.06l0.08,-0.06l0.07,-0.05l0.08,-0.06l0.08,-0.05l0.09,-0.05l0.16,-0.1l0.09,-0.04l0.09,-0.05l0.08,-0.04l0.09,-0.04l0.09,-0.03l0.1,-0.04l0.18,-0.06l0.1,-0.03l0.09,-0.03l0.1,-0.02l0.1,-0.02l0.09,-0.02l0.1,-0.02l0.1,-0.01l0.1,-0.01l0.1,-0.01l0.11,-0.01h0.43l0.11,0.01l0.11,0.02l0.12,0.01l0.11,0.02l0.11,0.02l0.12,0.03l0.11,0.03l0.11,0.03l0.11,0.04l0.11,0.04l0.1,0.05l0.11,0.04l0.05,0.03l0.06,0.03l0.05,0.03h0.01l0.02,0.01l0.02,0.01h0.02l0.03,0.01h0.06l0.02,0.01h0.04l0.02,-0.01h0.04l0.02,-0.01h0.02l0.06,-0.03h0.02l0.02,-0.01l0.01,-0.01l0.02,-0.01l0.03,-0.03l0.02,-0.01l0.03,-0.03l0.02,-0.02l0.03,-0.03l0.04,-0.07l0.06,-0.07l0.05,-0.08l0.05,-0.08l0.05,-0.07l0.15,-0.24l0.1,-0.16l0.04,-0.08l0.05,-0.08l0.05,-0.09l0.04,-0.08l0.05,-0.08l0.03,-0.07l0.01,-0.01l0.01,-0.02v-0.02l0.01,-0.01v-0.02l0.01,-0.01v-0.04h0.01v-0.15l-0.01,-0.02v-0.02l-0.01,-0.02v-0.03l-0.01,-0.02l-0.01,-0.02l-0.01,-0.02v-0.01l-0.01,-0.01v-0.01l-0.02,-0.02v-0.01h-0.01v-0.01l-0.01,-0.01l-0.02,-0.02v-0.01l-0.01,-0.01h-0.01l-0.01,-0.01v-0.01l-0.01,-0.01l-0.01,-0.01h-0.01l-0.02,-0.02h-0.01l-0.01,-0.01l-0.01,-0.01l-0.09,-0.06l-0.11,-0.07l-0.1,-0.07l-0.09,-0.08l-0.1,-0.08l-0.09,-0.08l-0.09,-0.09l-0.09,-0.09l-0.09,-0.09l-0.08,-0.09l-0.08,-0.1l-0.07,-0.1l-0.08,-0.1l-0.07,-0.1l-0.06,-0.11l-0.07,-0.11l-0.06,-0.11l-0.05,-0.11l-0.03,-0.06l-0.03,-0.05l-0.03,-0.06l-0.02,-0.06l-0.02,-0.06l-0.03,-0.06l-0.02,-0.06l-0.02,-0.06l-0.02,-0.06l-0.02,-0.06l-0.02,-0.06l-0.01,-0.06l-0.02,-0.07l-0.01,-0.06l-0.02,-0.06l-0.01,-0.07l-0.01,-0.06l-0.02,-0.06l-0.01,-0.07v-0.06l-0.01,-0.07l-0.01,-0.06l-0.01,-0.07v-0.13l-0.01,-0.07v-0.27l0.01,-0.06v-0.13l0.01,-0.07l0.01,-0.06l0.01,-0.07v-0.06l0.01,-0.07l0.02,-0.06l0.01,-0.07l0.01,-0.06l0.02,-0.06l0.01,-0.06l0.02,-0.07l0.01,-0.06l0.02,-0.06l0.02,-0.06l0.02,-0.06l0.02,-0.06l0.02,-0.06l0.03,-0.06l0.02,-0.06l0.02,-0.06l0.03,-0.06l0.05,-0.11l0.06,-0.11l0.06,-0.11l0.06,-0.11002l0.07,-0.11l0.14,-0.2l0.08,-0.1l0.08,-0.1l0.08,-0.09l0.08,-0.09l0.09,-0.09l0.09,-0.09l0.09,-0.08l0.1,-0.08l0.09,-0.08l0.1,-0.07l0.11,-0.07l0.09,-0.06l0.02,-0.02l0.01,-0.01h0.01l0.01,-0.01l0.01,-0.01l0.01,-0.01l0.01,-0.01l0.01,-0.01h0.01v-0.01l0.01,-0.01l0.01,-0.01v-0.01l0.01,-0.01h0.01l0.01,-0.01v-0.01l0.01,-0.01v-0.01l0.01,-0.01l0.01,-0.03l0.03,-0.06v-0.02l0.01,-0.02v-0.02l0.01,-0.02v-0.14l-0.01,-0.01v-0.04l-0.01,-0.01v-0.02l-0.01,-0.01v-0.02l-0.01,-0.01v-0.01l-0.01,-0.01l-0.04,-0.08l-0.04,-0.08l-0.04,-0.08l-0.04,-0.08l-0.05,-0.08l-0.04,-0.08l-0.05,-0.07l-0.05,-0.08l-0.04,-0.07l-0.1,-0.14l-0.05,-0.07l-0.05,-0.07l-0.05,-0.07l-0.06,-0.07l-0.07,-0.08l-0.03,-0.05l-0.01,-0.01l-0.02,-0.01l-0.01,-0.02l-0.01,-0.01l-0.02,-0.01l-0.01,-0.02l-0.02,-0.01l-0.02,-0.01l-0.01,-0.01h-0.02l-0.02,-0.01l-0.01,-0.01l-0.02,-0.01h-0.02l-0.02,-0.01h-0.04l-0.01,-0.01h-0.1l-0.02,0.01h-0.04l-0.01,0.01h-0.02l-0.02,0.01l-0.02,0.01l-0.04,0.01l-0.08,0.04l-0.1,0.04l-0.1,0.04l-0.1,0.04l-0.11,0.03l-0.1,0.04l-0.11,0.03l-0.1,0.02l-0.11,0.02l-0.11,0.02l-0.11,0.02l-0.11,0.01l-0.11,0.01l-0.11,0.01l-0.12,0.01h-0.21l-0.1,-0.01h-0.11l-0.1,-0.01l-0.1,-0.01l-0.1,-0.02l-0.1,-0.01l-0.09,-0.02l-0.1,-0.02l-0.1,-0.03l-0.09,-0.02l-0.1,-0.03l-0.18,-0.06l-0.1,-0.04l-0.18,-0.08l-0.08,-0.04l-0.09,-0.04l-0.09,-0.05l-0.08,-0.04l-0.08,-0.05l-0.09,-0.05l-0.08,-0.06l-0.08,-0.05l-0.07,-0.06l-0.08,-0.06l-0.07,-0.06l-0.08,-0.06l-0.07,-0.06l-0.07,-0.07l-0.07,-0.06l-0.06,-0.07l-0.07,-0.07l-0.06,-0.07l-0.07,-0.08l-0.06,-0.07l-0.05,-0.08l-0.06,-0.08l-0.06,-0.07l-0.05,-0.08l-0.05,-0.09l-0.05,-0.08l-0.05,-0.08l-0.04,-0.09l-0.04,-0.09l-0.05,-0.09l-0.03,-0.08l-0.04,-0.09l-0.04,-0.1l-0.03,-0.09l-0.03,-0.09l-0.03,-0.1l-0.02,-0.09l-0.03,-0.1l-0.02,-0.1l-0.02,-0.09l-0.01,-0.1l-0.02,-0.1l-0.02,-0.2v-0.11l-0.01,-0.1v-0.05h-0.08l-0.13,-0.02l-0.13,-0.01h-0.13l-0.26,-0.02h-0.54l-0.13,0.01h-0.13l-0.14,0.01l-0.26,0.02l-0.07,0.01v0.15l-0.01,0.11l-0.02,0.2l-0.02,0.1l-0.01,0.1l-0.02,0.09l-0.02,0.1l-0.03,0.1l-0.02,0.09l-0.03,0.1l-0.03,0.09l-0.03,0.09l-0.04,0.1l-0.03,0.09l-0.04,0.09l-0.04,0.08l-0.05,0.09l-0.04,0.09l-0.05,0.08l-0.05,0.08l-0.05,0.08l-0.05,0.09l-0.06,0.08l-0.06,0.07l-0.05,0.08l-0.06,0.07l-0.07,0.08l-0.05999,0.07l-0.06,0.07l-0.07,0.07l-0.07,0.06l-0.07,0.07l-0.07,0.06l-0.08,0.06l-0.07,0.06l-0.08,0.06l-0.07,0.06l-0.08,0.06l-0.16,0.1l-0.09,0.05l-0.08,0.04l-0.09,0.05l-0.09,0.04l-0.08,0.05l-0.09,0.03l-0.18,0.08l-0.1,0.03l-0.09,0.03l-0.1,0.03l-0.09,0.02l-0.1,0.03l-0.09,0.02l-0.1,0.02l-0.1,0.01l-0.1,0.02l-0.2,0.02h-0.1l-0.11,0.01h-0.21l-0.12,-0.01l-0.11,-0.01l-0.11,-0.01l-0.12,-0.01l-0.11,-0.02l-0.11,-0.02l-0.11,-0.03l-0.12,-0.03l-0.11,-0.03l-0.22,-0.08l-0.1,-0.05l-0.11,-0.05l-0.05,-0.03l-0.05,-0.02l-0.05,-0.03l-0.02,-0.01h-0.02l-0.04,-0.02h-0.04l-0.02,-0.01h-0.11l-0.02,0.01h-0.02l-0.02,0.01h-0.02l-0.02,0.01h-0.02l-0.04,0.02l-0.01,0.01l-0.02,0.01l-0.04,0.02l-0.01,0.02l-0.02,0.01l-0.02,0.01l-0.01,0.02l-0.02,0.01l-0.02,0.04l-0.05,0.06l-0.05,0.08l-0.06,0.08l-0.05,0.07l-0.1,0.16l-0.05,0.08l-0.05,0.08l-0.05,0.08l-0.05,0.08l-0.04,0.08l-0.05,0.08l-0.05,0.08l-0.04,0.09l-0.05,0.08l-0.03,0.07h-0.01v0.02l-0.01,0.02v0.01l-0.01,0.01v0.02l-0.01,0.01v0.04l-0.01,0.01v0.14l0.01,0.02v0.02l0.01,0.02z"></path></g></g><defs><rect id="path_0" x="0" y="0" width="24" height="24" /></defs></svg>