<svg xmlns="http://www.w3.org/2000/svg" xmlns:xlink="http://www.w3.org/1999/xlink" width="48" height="24" viewBox="0 0 48 24" fill="none"><defs><radialGradient id="linear_0" cx="30.1059217976265%" cy="22.745515314263756%" fx="30.1059217976265%" fy="22.745515314263756%" r="1.0417983284598809" gradientTransform="translate(0.301059217976265 0.22745515314263756) scale(1 1) rotate(47.863565434893644) scale(1 1.0000000920945393) translate(-0.301059217976265 -0.22745515314263756)" ><stop offset="0" stop-color="#FFF72C" stop-opacity="1" /><stop offset="1" stop-color="#DF7800" stop-opacity="1" /></radialGradient><filter id="filter_14" x="4" y="-20" width="64" height="64" filterUnits="userSpaceOnUse" color-interpolation-filters="sRGB"><feFlood flood-opacity="0" result="BackgroundImageFix"/>
          <feBlend mode="normal" in="SourceGraphic" in2="BackgroundImageFix" result="shape"/>
          <feColorMatrix in="SourceAlpha" type="matrix" values="0 0 0 0 0 0 0 0 0 0 0 0 0 0 0 0 0 0 127 0" result="hardAlpha"/>
          <feOffset dx="20" dy="-21"/>
          <feGaussianBlur stdDeviation="11"/>
          <feComposite in2="hardAlpha" operator="arithmetic" k2="-1" k3="1"/>
          <feColorMatrix type="matrix" values="0 0 0 0 0 0 0 0 0 0 0 0 0 0 0 0 0 0 0.14 0"/>
          <feBlend mode="normal" in2="shape" result="effect1_Shadow"/><feFlood flood-opacity="0" result="BackgroundImageFix"/>
          <feBlend mode="normal" in="SourceGraphic" in2="BackgroundImageFix" result="shape"/>
          <feColorMatrix in="SourceAlpha" type="matrix" values="0 0 0 0 0 0 0 0 0 0 0 0 0 0 0 0 0 0 127 0" result="hardAlpha"/>
          <feOffset dx="-6" dy="9"/>
          <feGaussianBlur stdDeviation="5.5"/>
          <feComposite in2="hardAlpha" operator="arithmetic" k2="-1" k3="1"/>
          <feColorMatrix type="matrix" values="0 0 0 0 1 0 0 0 0 1 0 0 0 0 1 0 0 0 0.3 0"/>
          <feBlend mode="normal" in2="shape" result="effect1_Shadow"/></filter><filter id="filter_16" x="0" y="-7" width="51" height="46" filterUnits="userSpaceOnUse" color-interpolation-filters="sRGB"><feFlood flood-opacity="0" result="BackgroundImageFix"/>
          <feBlend mode="normal" in="SourceGraphic" in2="BackgroundImageFix" result="shape"/>
          <feColorMatrix in="SourceAlpha" type="matrix" values="0 0 0 0 0 0 0 0 0 0 0 0 0 0 0 0 0 0 127 0" result="hardAlpha"/>
          <feOffset dx="8" dy="-15"/>
          <feGaussianBlur stdDeviation="8.5"/>
          <feComposite in2="hardAlpha" operator="arithmetic" k2="-1" k3="1"/>
          <feColorMatrix type="matrix" values="0 0 0 0 0 0 0 0 0 0 0 0 0 0 0 0 0 0 0.32 0"/>
          <feBlend mode="normal" in2="shape" result="effect1_Shadow"/><feFlood flood-opacity="0" result="BackgroundImageFix"/>
          <feBlend mode="normal" in="SourceGraphic" in2="BackgroundImageFix" result="shape"/>
          <feColorMatrix in="SourceAlpha" type="matrix" values="0 0 0 0 0 0 0 0 0 0 0 0 0 0 0 0 0 0 127 0" result="hardAlpha"/>
          <feOffset dx="-18" dy="11"/>
          <feGaussianBlur stdDeviation="8"/>
          <feComposite in2="hardAlpha" operator="arithmetic" k2="-1" k3="1"/>
          <feColorMatrix type="matrix" values="0 0 0 0 1 0 0 0 0 1 0 0 0 0 1 0 0 0 0.94 0"/>
          <feBlend mode="normal" in2="shape" result="effect1_Shadow"/></filter></defs><g opacity="1" transform="translate(0 0)  rotate(0 24 12)"><path id="background/Filled" fill-rule="evenodd" style="fill:#6C5DD3" transform="translate(0 0)  rotate(0 24 12)" opacity="1" d="M12,24L36,24C39.18,24 42.23,22.74 44.49,20.49C46.74,18.23 48,15.18 48,12L48,12C48,8.82 46.74,5.77 44.49,3.51C42.23,1.26 39.18,0 36,0L12,0C8.82,0 5.77,1.26 3.51,3.51C1.26,5.77 0,8.82 0,12L0,12C0,15.18 1.26,18.23 3.51,20.49C5.77,22.74 8.82,24 12,24Z " /><path id="Vector" fill-rule="evenodd" style="fill:#FFFFFF" transform="translate(37 5)  rotate(0 1 1)" opacity="1" d="M0.65,0.65L0,1L0.65,1.35L1,2L1.35,1.35L2,1L1.35,0.65L1,0L0.65,0.65Z " /><path id="Vector" fill-rule="evenodd" style="fill:#FFFFFF" transform="translate(13 18)  rotate(0 1 1)" opacity="1" d="M0.65,0.65L0,1L0.65,1.35L1,2L1.35,1.35L2,1L1.35,0.65L1,0L0.65,0.65Z " /><path id="Vector" fill-rule="evenodd" style="fill:#FFFFFF" transform="translate(18 4)  rotate(0 1 1)" opacity="1" d="M0.65,0.65L0,1L0.65,1.35L1,2L1.35,1.35L2,1L1.35,0.65L1,0L0.65,0.65Z " /><path id="Vector" fill-rule="evenodd" style="fill:#FFFFFF" transform="translate(38 6)  rotate(0 1.5 1.5)" opacity="1" d="M0.97,0.97L0,1.5L0.97,2.03L1.5,3L2.03,2.03L3,1.5L2.03,0.97L1.5,0L0.97,0.97Z " /><path id="Vector" fill-rule="evenodd" style="fill:#FFFFFF" transform="translate(6 10)  rotate(0 1.5 1.5)" opacity="1" d="M0.97,0.97L0,1.5L0.97,2.03L1.5,3L2.03,2.03L3,1.5L2.03,0.97L1.5,0L0.97,0.97Z " /><g id="Vector 3" filter="url(#filter_14)"><path id="Vector 3" fill-rule="evenodd" fill="url(#linear_0)" transform="translate(26 2)  rotate(0 10 10)" opacity="1" d="M3.85,17.4C10.16,22.37 17.27,19.5 20,14.76C6.9,13.58 7.01,4.76 7.11,0C1.8,0.85 -4.04,11.19 3.85,17.4Z " /></g><g id="Vector" filter="url(#filter_16)"><path id="Vector" fill-rule="evenodd" style="fill:#FFFFFF" transform="translate(17 10)  rotate(0 8.5 6)" opacity="1" d="M7.11,0C4.95,0 3.19,1.76 3.19,3.94C3.19,4.25 3.23,4.56 3.3,4.85C1.46,4.98 0,6.53 0,8.42C0,10.4 1.59,12 3.55,12L12.31,12C14.9,12 17,9.88 17,7.28C17,4.67 14.9,2.55 12.31,2.55C11.8,2.55 11.31,2.63 10.85,2.78C10.36,1.17 8.87,0 7.11,0Z " /></g></g></svg>