<svg xmlns="http://www.w3.org/2000/svg" xmlns:xlink="http://www.w3.org/1999/xlink" width="24" height="24" viewBox="0 0 24 24" fill="none"><defs><rect id="path_0" x="0" y="0" width="24" height="24.00000000000001" /></defs><g opacity="1" transform="translate(0 0)  rotate(0 12 12.000000000000005)"><mask id="bg-mask-0" fill="white"><use xlink:href="#path_0"></use></mask><g mask="url(#bg-mask-0)" ><path id="分组 1" fill-rule="evenodd" style="fill:#3B11D7" transform="translate(8.201034281090426e-16 0.00048464091096450077)  rotate(0 12.002391614066727 11.999998762602331)" opacity="1" d="M24 8C24 6.88 23.65 5.79 23 4.92L22.4 2.11C22.05 0.82 20.93 -0.05 19.68 0L4.3 0C3.06 -0.05 1.94 0.82 1.59 2.12L1.01 4.91C0.36 5.79 0.01 6.88 0 8C0 9.99 1.09 11.79 2.77 12.58L2.77 21C2.72 22.6 3.88 23.94 5.35 24L18.65 24C20.13 23.94 21.28 22.6 21.24 21L21.24 12.58C22.92 11.79 24 9.99 24 8Z M5.35318 22.0013L18.6532 22.0013C19.1032 21.9313 19.4232 21.4913 19.3932 21.0013L19.3932 13.0013C17.9332 13.0013 16.5632 12.2613 15.6932 11.0013C14.8232 12.2613 13.4532 13.0013 12.0032 13.0013C10.5532 13.0013 9.18318 12.2613 8.31318 11.0013C7.43318 12.2613 6.07318 13.0013 4.61318 13.0013L4.61318 21.0013C4.57318 21.4913 4.90318 21.9313 5.35318 22.0013Z M8.33422 6.86723C8.73422 6.83723 9.11422 7.09723 9.26422 7.49723C9.26422 7.54723 9.26422 7.59723 9.26422 7.64723C9.28422 7.70723 9.29422 7.76723 9.30422 7.82723L9.30422 7.95723C9.30422 9.61723 10.5442 10.9572 12.0742 10.9572C13.6042 10.9572 14.8442 9.61723 14.8442 7.95723L14.8442 7.74723C14.8742 7.35723 15.1142 7.01723 15.4542 6.88723C15.8042 6.75723 16.1842 6.85723 16.4342 7.13723C16.4342 7.15723 16.4342 7.17723 16.4342 7.19723C16.4942 7.26723 16.5342 7.34723 16.5642 7.42723C16.5942 7.49723 16.6142 7.57723 16.6142 7.64723L16.6142 7.73723L16.6142 7.86723L16.6142 7.99723C16.6142 9.65723 17.8542 10.9972 19.3842 10.9972L19.3942 11.0372C20.4542 11.0372 21.4242 10.3772 21.8842 9.34723C22.3442 8.30723 22.2142 7.07723 21.5542 6.17723C21.4142 6.04723 21.3142 5.86723 21.2642 5.66723L20.6242 2.59723C20.4542 2.22723 20.0842 1.99723 19.7042 2.03723L4.34422 2.03723C3.95422 1.99723 3.58422 2.22723 3.41422 2.59723L2.77422 5.67723C2.72422 5.90723 2.60422 6.11723 2.42422 6.24723C2.07422 6.76723 1.87422 7.39723 1.87422 8.03723C1.87422 9.69723 3.11422 11.0372 4.64422 11.0372C6.17422 11.0372 7.41422 9.69723 7.41422 8.03723L7.41422 7.86723C7.41422 7.31723 7.82422 6.86723 8.33422 6.86723Z " /><path id="路径 4" fill-rule="evenodd" style="fill:#F34E79" transform="translate(7.386087148782664 15.001393322365626)  rotate(0 4.616304465284038 0.9998987578125008)" opacity="1" d="M9.23,1C9.23,0.45 8.82,0 8.31,0L0.92,0C0.41,0 0,0.45 0,1C0,1.55 0.41,2 0.92,2L8.31,2C8.82,2 9.23,1.55 9.23,1Z " /></g></g></svg>