<svg xmlns="http://www.w3.org/2000/svg" xmlns:xlink="http://www.w3.org/1999/xlink" width="16" height="16" viewBox="0 0 16 16" fill="none"><defs><rect id="path_0" x="0" y="0" width="16" height="16" /></defs><g opacity="1" transform="translate(0 0)  rotate(0 8 8)"><mask id="bg-mask-0" fill="white"><use xlink:href="#path_0"></use></mask><g mask="url(#bg-mask-0)" ><path id="路径 1" fill-rule="evenodd" style="fill:#272636" transform="translate(1.44778640625 1.0062777343749991)  rotate(0 6.5323230859375006 7.003139875000001)" opacity="1" d="M0,12.29C0,13.23 0.77,14.01 1.72,14.01L11.35,14.01C12.29,14.01 13.06,13.23 13.06,12.29L13.06,7C13.06,6.83 12.92,6.69 12.75,6.69C12.58,6.69 12.44,6.83 12.44,7L12.44,12.29C12.44,12.89 11.95,13.38 11.35,13.38L1.72,13.38C1.12,13.38 0.63,12.89 0.63,12.29L0.63,1.72C0.63,1.12 1.12,0.63 1.72,0.63L7.38,0.63C7.55,0.63 7.69,0.49 7.69,0.31C7.69,0.14 7.55,0 7.38,0L1.72,0C0.77,0 0,0.77 0,1.72L0,12.29Z " /><path id="分组 1" fill-rule="evenodd" style="fill:#272636" transform="translate(4.168165322459421 1.0165987436163335)  rotate(0 5.418750286102295 5.477722112566834)" opacity="1" d="M0.48 10.91L3.9 8.8C3.92 8.79 3.94 8.77 3.96 8.75L10.56 2.15C10.93 1.79 10.93 1.19 10.56 0.83L10.01 0.27C9.64 -0.09 9.05 -0.09 8.68 0.27L2.08 6.87C2.06 6.89 2.04 6.92 2.03 6.94L0.04 10.49C-0.03 10.61 -0.01 10.77 0.1 10.87C0.16 10.93 0.23 10.96 0.31 10.96C0.37 10.96 0.43 10.94 0.48 10.91Z M1.17484 9.73966L3.23484 8.46966L2.37484 7.60966L1.17484 9.73966Z M10.1209 1.26496L9.56086 0.714964C9.44086 0.594964 9.24086 0.594964 9.12086 0.714964L2.74086 7.09496L3.74086 8.09496L10.1209 1.71496C10.2409 1.58496 10.2409 1.39496 10.1209 1.26496Z " /></g></g></svg>