<svg xmlns="http://www.w3.org/2000/svg" xmlns:xlink="http://www.w3.org/1999/xlink" width="24" height="24" viewBox="0 0 24 24" fill="none"><g opacity="1" transform="translate(0 0)  rotate(0 12 12)"><g opacity="1" transform="translate(3 2)  rotate(0 9 10)"><path id="Fill 1" fill-rule="evenodd" style="fill:#CFC8FF" transform="translate(1.35 6.7)  rotate(0 7.645 6.65)" opacity="1" d="M3.78,13.26C5.03,13.29 6.33,13.3 7.65,13.3C8.89,13.3 10.16,13.29 11.45,13.26C13.14,13.23 14.26,12.18 14.45,10.43C14.75,7.6 15.29,0.86 15.29,0.79C15.31,0.59 15.24,0.39 15.11,0.23C14.96,0.09 14.78,0 14.58,0L0.71,0C0.51,0 0.32,0.09 0.19,0.23C0.06,0.39 -0.01,0.59 0,0.79C0.01,0.86 0.53,7.59 0.85,10.43C1.03,12.15 2.15,13.22 3.78,13.26Z " /><path id="Fill 4" fill-rule="evenodd" style="fill:#6C5DD3" transform="translate(0 0)  rotate(0 9 2.545)" opacity="1" d="M0,4.36C0,4.76 0.32,5.09 0.71,5.09L17.29,5.09C17.68,5.09 18,4.76 18,4.36L18,3.98C18,3.57 17.68,3.24 17.29,3.24L14.37,3.24C13.78,3.24 13.26,2.82 13.13,2.23L12.97,1.5C12.74,0.62 11.95,0 11.06,0L6.94,0C6.04,0 5.26,0.62 5.02,1.55L4.87,2.23C4.74,2.82 4.22,3.24 3.63,3.24L0.71,3.24C0.32,3.24 0,3.57 0,3.98L0,4.36Z " /></g></g></svg>