<svg xmlns="http://www.w3.org/2000/svg" xmlns:xlink="http://www.w3.org/1999/xlink" width="24" height="24" viewBox="0 0 24 24" fill="none"><defs><rect id="path_0" x="0" y="0" width="24" height="24" /></defs><g opacity="1" transform="translate(0 0)  rotate(0 12 12)"><mask id="bg-mask-0" fill="white"><use xlink:href="#path_0"></use></mask><g mask="url(#bg-mask-0)" ><path id="分组 1" fill-rule="evenodd" style="fill:#839BFB" transform="translate(6.359832196506849 6.109832212126665)  rotate(0 5.740083897840334 5.740083897842917)" opacity="1" d="M11.48 5.74C11.48 3.42 10.08 1.33 7.94 0.44C5.79 -0.45 3.32 0.04 1.68 1.68C0.04 3.32 -0.45 5.79 0.44 7.94C1.33 10.08 3.42 11.48 5.74 11.48C8.91 11.48 11.48 8.91 11.48 5.74Z M1.38017 5.75014C1.39017 8.17014 3.35017 10.1201 5.77017 10.1201C8.18017 10.1201 10.1402 8.16014 10.1402 5.74014C10.1402 4.58014 9.67017 3.46014 8.85017 2.64014C8.02017 1.82014 6.90017 1.36014 5.74017 1.36014C3.32017 1.37014 1.37017 3.34014 1.38017 5.75014Z " /><path id="分组 2" fill-rule="evenodd" style="fill:#839BFB" transform="translate(2.1597108739343676 1.909710866121914)  rotate(0 9.935145200199173 9.93514520019917)" opacity="1" d="M19.87 9.94C19.87 5.92 17.45 2.3 13.74 0.76C10.03 -0.78 5.75 0.07 2.91 2.91C0.07 5.75 -0.78 10.03 0.76 13.74C2.3 17.45 5.92 19.87 9.94 19.87C15.42 19.86 19.86 15.42 19.87 9.94Z M2.01004 6.66529C0.69004 9.86529 1.42004 13.5553 3.87004 16.0053C6.32004 18.4653 10.01 19.1953 13.22 17.8653C16.42 16.5353 18.51 13.4053 18.51 9.94529C18.5 5.20529 14.67 1.37529 9.94004 1.36529L9.94004 1.37529C6.47004 1.36529 3.34004 3.45529 2.01004 6.66529Z " /><path id="路径 5" fill-rule="evenodd" style="fill:#C0CEF9" transform="translate(9.59491681499722 1.36999999218751)  rotate(0 6.515041588595134 6.455009155171687)" opacity="1" d="M2.41,8.41C1.57,8.35 0.76,8.77 0.33,9.48C-0.11,10.2 -0.11,11.11 0.33,11.83C0.76,12.54 1.57,12.96 2.41,12.91C3.11,12.9 3.77,12.56 4.19,11.99C4.6,11.42 4.73,10.69 4.53,10.02L8.37,6.19L9.24,6.19L13.03,3.13L10.7,2.33L9.91,0L6.91,3.79L6.91,4.67L3.07,8.51C2.85,8.44 2.63,8.41 2.41,8.41Z " /><path id="分组 3" fill-rule="evenodd" style="fill:#FFFFFF" transform="translate(9.286782406211557 0.49999999218748964)  rotate(0 7.106608800800485 7.102507564499557)" opacity="1" d="M8.50434 6.61L9.39434 6.61L12.4643 4.14L10.6743 3.54L10.0743 1.74L7.60434 4.81L7.60434 5.71L3.44434 9.86C3.20434 9.75 2.94434 9.69 2.67434 9.7C2.19434 9.69 1.73434 9.88 1.39434 10.23C0.734336 10.88 0.674336 11.92 1.24434 12.65C1.81434 13.38 2.84434 13.57 3.63434 13.08C4.42434 12.6 4.73434 11.6 4.34434 10.76L8.50434 6.61Z M11.35 2.86L10.88 1.46L10.39 0L9.39 1.21L6.94 4.28L6.76 4.51L6.76 5.36L3.21 8.9C3.04 8.86 2.86 8.85 2.68 8.85C1.55 8.85 0.54 9.56 0.16 10.62C-0.22 11.69 0.11 12.88 0.98 13.6C1.86 14.32 3.09 14.41 4.06 13.82C5.03 13.24 5.53 12.11 5.31 11L8.85 7.46L9.71 7.46L9.94 7.27L13.01 4.8L14.21 3.82L12.74 3.32L11.35 2.86Z " /></g></g></svg>