<svg xmlns="http://www.w3.org/2000/svg" xmlns:xlink="http://www.w3.org/1999/xlink" width="28" height="28" viewBox="0 0 28 28" fill="none"><g opacity="1" transform="translate(0 0)  rotate(0 14 14)"><g opacity="1" transform="translate(2.3333333333333335 2.3333333333333335)  rotate(0 11.666666666666668 11.666666666666668)"><path id="Fill 1" fill-rule="evenodd" style="fill:#CFC8FF" transform="translate(0 0)  rotate(0 11.666666666666668 11.666666666666668)" opacity="1" d="M5.67,0C2.28,0 0,2.38 0,5.92L0,14.09C0,17.62 2.28,20 5.67,20L14.34,20C17.73,20 20,17.62 20,14.09L20,5.92C20,2.38 17.73,0 14.34,0L5.67,0Z " /><path id="Fill 4" fill-rule="evenodd" style="fill:#6C5DD3" transform="translate(7.8516666666666675 7.84)  rotate(0 3.8208333333333333 3.8208333333333333)" opacity="1" d="M6.29,0.26C5.95,-0.09 5.4,-0.08 5.05,0.26L3.27,2.04L1.49,0.26C1.15,-0.09 0.6,-0.08 0.26,0.26C-0.09,0.6 -0.09,1.15 0.26,1.49L2.04,3.28L0.26,5.05C-0.08,5.39 -0.08,5.95 0.26,6.29C0.43,6.46 0.65,6.55 0.88,6.55C1.1,6.55 1.33,6.46 1.5,6.29L3.27,4.51L5.06,6.29C5.23,6.46 5.45,6.55 5.67,6.55C5.9,6.55 6.12,6.46 6.29,6.29C6.64,5.95 6.64,5.4 6.29,5.06L4.51,3.28L6.29,1.5C6.63,1.16 6.63,0.6 6.29,0.26Z " /></g></g></svg>