<svg xmlns="http://www.w3.org/2000/svg" xmlns:xlink="http://www.w3.org/1999/xlink" width="24" height="24" viewBox="0 0 24 24" fill="none"><defs><rect id="path_0" x="0" y="0" width="24" height="24" /></defs><g opacity="1" transform="translate(0 0)  rotate(0 12 12)"><mask id="bg-mask-0" fill="white"><use xlink:href="#path_0"></use></mask><g mask="url(#bg-mask-0)" ><path id="路径 1" fill-rule="evenodd" style="fill:#5E6272" transform="translate(0.1640625 0.1640625)  rotate(0 11.859375000000002 11.859375)" opacity="1" d="M20.25,20.25C21.33,19.16 22.19,17.89 22.79,16.48C23.4,15.01 23.72,13.46 23.72,11.86C23.72,10.65 23.54,9.45 23.18,8.3C23.02,7.8 22.49,7.53 22,7.68C21.5,7.84 21.23,8.36 21.38,8.86C21.69,9.82 21.84,10.84 21.84,11.86C21.84,17.36 17.36,21.84 11.86,21.84C6.35,21.84 1.88,17.36 1.88,11.86C1.88,6.35 6.35,1.88 11.86,1.88C12.8,1.88 13.74,2.01 14.63,2.26C15.13,2.41 15.65,2.12 15.79,1.62C15.94,1.13 15.65,0.61 15.15,0.46C14.09,0.16 12.98,0 11.86,0C10.26,0 8.7,0.31 7.24,0.93C5.83,1.53 4.56,2.38 3.47,3.47C2.39,4.56 1.53,5.83 0.93,7.24C0.31,8.7 0,10.26 0,11.86C0,13.46 0.31,15.01 0.93,16.48C1.53,17.89 2.38,19.16 3.47,20.25C4.56,21.33 5.83,22.19 7.24,22.79C8.7,23.4 10.26,23.72 11.86,23.72C13.46,23.72 15.01,23.4 16.48,22.79C17.89,22.19 19.16,21.33 20.25,20.25Z " /><path id="分组 1" fill-rule="evenodd" style="fill:#5E6272" transform="translate(6.3984375 0.025781249999987876)  rotate(0 8.790551556569492 8.858203125000006)" opacity="1" d="M9.72 16.0458C10.8 14.9758 11.39 13.5458 11.39 12.0258C11.39 11.5458 11.33 11.0758 11.22 10.6258C11.09 10.1258 10.58 9.81578 10.08 9.94578C9.58 10.0758 9.27 10.5858 9.4 11.0858C9.47 11.3858 9.51 11.7058 9.51 12.0258C9.51 14.1258 7.8 15.8458 5.69 15.8458C3.59 15.8458 1.87 14.1258 1.87 12.0258C1.87 9.91578 3.59 8.20578 5.69 8.20578C5.98 8.20578 6.27 8.23578 6.55 8.29578C7.05 8.41578 7.55 8.09578 7.67 7.59578C7.78 7.08578 7.47 6.58578 6.96 6.46578C6.55 6.37578 6.12 6.32578 5.7 6.32578C4.17 6.32578 2.74 6.91578 1.67 7.99578C0.59 9.06578 0 10.4958 0 12.0258C0 13.5458 0.59 14.9758 1.67 16.0458C2.74 17.1258 4.17 17.7158 5.7 17.7158C7.22 17.7158 8.65 17.1258 9.72 16.0458Z M11.1773 4.20844C11.3573 4.56844 11.4673 4.95844 11.5073 5.35844L11.5773 6.00844L12.2173 6.07844C12.6173 6.11844 13.0173 6.22844 13.3673 6.40844L14.9273 4.84844C13.8373 4.60844 12.9773 3.73844 12.7473 2.64844L11.1773 4.20844Z M9.59775 3.14C9.11775 3.62 9.05775 4.36 9.41775 4.91C9.54775 5.1 9.61775 5.32 9.64775 5.55L9.78775 6.94C9.83775 7.39 10.1977 7.76 10.6577 7.8L12.0277 7.94C12.2577 7.96 12.4777 8.04 12.6677 8.16C12.9077 8.32 13.1777 8.4 13.4477 8.4C13.8077 8.4 14.1677 8.26 14.4377 7.98L17.2277 5.2C17.2377 5.19 17.2477 5.18 17.2577 5.16C17.9377 4.43 17.4677 3.23 16.4777 3.13L15.4277 3.03C14.9677 2.98 14.6077 2.62 14.5577 2.16L14.4477 1.1C14.3777 0.43 13.8077 0 13.2277 0C12.9377 0 12.6577 0.1 12.4177 0.32C12.4077 0.33 12.3977 0.34 12.3877 0.35L9.59775 3.14Z " /><path id="路径 5" fill-rule="evenodd" style="fill:#5E6272" transform="translate(11.034375000000022 4.237499999999994)  rotate(0 4.368017929124107 4.3675781250000005)" opacity="1" d="M1.6,8.46L8.46,1.6C8.83,1.23 8.83,0.64 8.46,0.27C8.09,-0.09 7.5,-0.09 7.13,0.27L0.27,7.13C-0.09,7.5 -0.09,8.1 0.27,8.46C0.46,8.64 0.7,8.74 0.94,8.74C1.18,8.74 1.42,8.64 1.6,8.46Z " /></g></g></svg>