<svg xmlns="http://www.w3.org/2000/svg" xmlns:xlink="http://www.w3.org/1999/xlink" width="16" height="16" viewBox="0 0 16 16" fill="none"><g opacity="1" transform="translate(0 0)  rotate(0 8 8)"><path id="Fill 1" fill-rule="evenodd" style="fill:#808191" transform="translate(0 0)  rotate(0 8 8)" opacity="0.4" d="M4.54,0C1.82,0 0,1.9 0,4.74L0,11.27C0,14.1 1.82,16 4.54,16L11.47,16C14.18,16 16,14.1 16,11.27L16,4.74C16,1.9 14.18,0 11.47,0L4.54,0Z " /><path id="Combined Shape" fill-rule="evenodd" style="fill:#FFFFFF" transform="translate(3.46 7.04)  rotate(0 4.545000076293945 0.96)" opacity="1" d="M0 0.96C0 1.49 0.43 1.92 0.96 1.92C1.49 1.92 1.92 1.49 1.92 0.96C1.92 0.43 1.49 0 0.96 0C0.43 0 0 0.43 0 0.96Z M3.58 0.96C3.58 1.49 4.01 1.92 4.54 1.92C5.07 1.92 5.5 1.49 5.5 0.96C5.5 0.43 5.07 0 4.54 0C4.01 0 3.58 0.43 3.58 0.96Z M8.13 1.92C7.6 1.92 7.17 1.49 7.17 0.96C7.17 0.43 7.6 0 8.13 0C8.66 0 9.09 0.43 9.09 0.96C9.09 1.49 8.66 1.92 8.13 1.92Z " /></g></svg>