<svg xmlns="http://www.w3.org/2000/svg" xmlns:xlink="http://www.w3.org/1999/xlink" width="24" height="24" viewBox="0 0 24 24" fill="none"><g opacity="1" transform="translate(0 0)  rotate(0 12 12)"><g opacity="1" transform="translate(0 0)  rotate(0 12 12)"><g opacity="1" transform="translate(2 2)  rotate(0 10 10)"><path id="Fill 1" fill-rule="evenodd" style="fill:#808191" transform="translate(0 0)  rotate(0 10 10)" opacity="0.4" d="M10,0C4.49,0 0,4.49 0,10C0,15.52 4.49,20 10,20C15.51,20 20,15.52 20,10C20,4.49 15.51,0 10,0Z " /><path id="Fill 4" fill-rule="evenodd" style="fill:#FFFFFF" transform="translate(5.78 7.81)  rotate(0 4.22 2.495)" opacity="1" d="M0.22,1.28L3.69,4.77C3.83,4.91 4.02,4.99 4.22,4.99C4.42,4.99 4.61,4.91 4.75,4.77L8.22,1.28C8.37,1.13 8.44,0.94 8.44,0.75C8.44,0.56 8.37,0.36 8.22,0.22C7.93,-0.07 7.45,-0.07 7.16,0.22L4.22,3.18L1.28,0.22C0.99,-0.07 0.51,-0.07 0.22,0.22C-0.07,0.51 -0.07,0.99 0.22,1.28Z " /></g></g></g></svg>