<svg xmlns="http://www.w3.org/2000/svg" xmlns:xlink="http://www.w3.org/1999/xlink" width="60" height="60" viewBox="0 0 60 60" fill="none"><defs><filter id="filter_0" x="-12" y="-12" width="84" height="84" filterUnits="userSpaceOnUse" color-interpolation-filters="sRGB"><feFlood flood-opacity="0" result="BackgroundImageFix"/>
          <feColorMatrix in="SourceAlpha" type="matrix" values="0 0 0 0 0 0 0 0 0 0 0 0 0 0 0 0 0 0 127 0"/>
          <feOffset dx="0" dy="8"/>
          <feGaussianBlur stdDeviation="6"/>
          <feColorMatrix type="matrix" values="0 0 0 0 0 0 0 0 0 0 0 0 0 0 0 0 0 0 0.25 0"/>
          <feBlend mode="normal" in2="BackgroundImageFix" result="effect1_Shadow"/>
          <feBlend mode="normal" in="SourceGraphic" in2="effect1_Shadow" result="shape"/></filter></defs><g opacity="1" transform="translate(0 0)  rotate(0 30 30)"><g id="undefined" filter="url(#filter_0)"></g><path id="add icon bg" fill-rule="evenodd" style="fill:#6C5DD3" transform="translate(0 0)  rotate(0 30 30)" opacity="1" d="M30,0C13.43,0 0,13.43 0,30C0,46.57 13.43,60 30,60C46.57,60 60,46.57 60,30C60,13.43 46.57,0 30,0Z " /><path id="Plus" fill-rule="evenodd" style="fill:#FFFFFF" transform="translate(23.84 23.83)  rotate(0 6.165 6.16)" opacity="1" d="M5.12 5.11L5.12 1.05C5.12 0.47 5.59 0 6.17 0C6.69 0 7.13 0.39 7.2 0.9L7.21 1.05L7.21 5.11L11.28 5.11C11.86 5.11 12.33 5.58 12.33 6.16C12.33 6.68 11.94 7.12 11.43 7.19L11.28 7.2L7.21 7.2L7.21 11.27C7.21 11.85 6.74 12.32 6.17 12.32C5.64 12.32 5.2 11.93 5.13 11.42L5.12 11.27L5.12 7.2L1.05 7.2C0.47 7.2 0 6.73 0 6.16C0 5.63 0.39 5.19 0.9 5.12L1.05 5.11L5.12 5.11Z " /></g></svg>