<svg xmlns="http://www.w3.org/2000/svg" xmlns:xlink="http://www.w3.org/1999/xlink" width="24" height="24" viewBox="0 0 24 24" fill="none"><defs><rect id="path_0" x="0" y="0" width="24" height="24" /></defs><g opacity="1" transform="translate(0 0)  rotate(0 12 12)"><mask id="bg-mask-0" fill="white"><use xlink:href="#path_0"></use></mask><g mask="url(#bg-mask-0)" ><path id="路径 1" fill-rule="evenodd" style="fill:#CCDAFF" transform="translate(7.271999999999978 3)  rotate(0 4.728000000000002 4.728000040114385)" opacity="1" d="M2.36,8.82C3.83,9.67 5.63,9.67 7.09,8.82C8.55,7.98 9.46,6.42 9.46,4.73C9.46,2.12 7.34,0 4.73,0C2.12,0 0,2.12 0,4.73C0,6.42 0.9,7.98 2.36,8.82Z " /><path id="路径 2" fill-rule="evenodd" style="fill:#7A7AF9" transform="translate(4.800000000000023 14.700000000000006)  rotate(0 7.200000000000001 3.155999999999999)" opacity="1" d="M14.06,2.09C13.06,0.86 10.36,0 7.2,0C4.03,0 1.34,0.88 0.34,2.09C0.06,2.42 0,2.78 0,3.16C0,3.53 0.06,3.89 0.34,4.22C1.34,5.45 4.04,6.31 7.2,6.31C10.37,6.31 13.06,5.44 14.06,4.22C14.34,3.89 14.4,3.53 14.4,3.16C14.4,2.77 14.34,2.41 14.06,2.09Z " /></g></g></svg>